<svg id="svg" xmlns="http://www.w3.org/2000/svg" xmlns:xlink="http://www.w3.org/1999/xlink" width="400" height="470" viewBox="0, 0, 400,470"><g id="svgg"><path id="path0" d="M178.696 18.492 C 173.539 19.685,167.864 21.867,167.261 22.889 C 167.070 23.213,166.678 23.485,166.391 23.494 C 162.701 23.604,160.362 33.389,163.653 34.950 C 164.466 35.336,166.080 35.658,167.240 35.665 C 168.399 35.672,172.185 35.960,175.652 36.304 C 179.120 36.649,183.522 36.950,185.435 36.974 C 187.348 36.998,189.296 37.167,189.764 37.350 C 191.032 37.846,184.582 38.254,175.217 38.269 C 166.148 38.283,164.082 38.603,162.817 40.186 C 161.997 41.213,159.686 42.192,156.087 43.037 C 155.250 43.233,153.489 43.819,152.174 44.338 C 150.859 44.858,149.252 45.448,148.604 45.650 C 145.826 46.514,140.669 49.374,139.429 50.737 C 133.699 57.034,134.114 54.417,134.209 83.592 C 134.341 124.459,134.646 126.704,140.611 130.748 C 141.590 131.411,142.489 132.062,142.609 132.194 C 143.666 133.360,152.191 136.522,154.277 136.522 C 155.305 136.522,155.354 136.869,155.221 143.152 L 155.159 146.087 157.688 146.087 C 159.079 146.088,163.641 145.804,167.826 145.457 C 190.823 143.551,210.386 143.479,214.779 145.284 L 215.862 145.729 214.344 146.384 C 213.286 146.840,210.125 147.159,203.913 147.437 C 191.616 147.986,190.686 148.201,190.000 150.651 C 189.126 153.775,190.137 166.527,192.413 181.087 C 192.749 183.239,193.230 187.152,193.481 189.783 C 193.731 192.413,194.209 196.326,194.542 198.478 C 195.253 203.077,196.379 211.709,198.284 227.174 C 200.206 242.772,201.588 279.732,200.290 280.810 C 198.818 282.031,198.347 280.460,197.182 270.435 C 196.807 267.207,196.211 262.609,195.856 260.217 C 195.501 257.826,195.213 255.213,195.214 254.410 C 195.216 253.607,194.939 251.260,194.599 249.193 C 193.652 243.433,193.043 238.222,193.043 235.872 C 193.043 234.703,192.762 231.974,192.417 229.808 C 192.073 227.642,191.479 223.522,191.098 220.652 C 190.718 217.783,190.129 213.380,189.790 210.870 C 189.451 208.359,188.865 203.761,188.489 200.652 C 188.112 197.543,187.513 192.750,187.158 190.000 C 186.803 187.250,186.205 180.994,185.830 176.098 C 185.454 171.201,185.063 167.059,184.961 166.893 C 184.858 166.727,184.568 164.081,184.315 161.013 C 183.308 148.790,183.144 148.528,176.739 148.900 C 154.983 150.164,148.425 150.714,145.155 151.548 C 143.805 151.892,142.142 152.180,141.459 152.188 C 140.776 152.195,139.838 152.489,139.373 152.840 C 138.909 153.191,138.265 153.478,137.942 153.478 C 136.933 153.478,132.700 156.950,131.670 158.623 C 129.150 162.714,129.131 162.863,129.127 179.565 C 129.123 193.517,128.897 198.601,127.888 207.391 L 127.563 210.217 127.045 208.478 C 126.760 207.522,126.525 205.551,126.524 204.098 C 126.521 200.652,125.311 193.530,124.516 192.283 C 123.510 190.703,122.927 191.049,117.751 196.298 C 115.042 199.045,112.671 201.295,112.482 201.298 C 112.292 201.302,111.749 201.666,111.274 202.109 C 110.126 203.178,106.392 205.005,103.696 205.816 C 102.500 206.175,100.152 206.943,98.478 207.522 C 96.804 208.101,94.359 208.886,93.043 209.268 C 91.728 209.650,89.674 210.251,88.478 210.603 C 87.283 210.956,85.518 211.365,84.556 211.513 C 80.684 212.108,80.741 212.234,86.739 216.290 C 88.652 217.584,90.707 219.114,91.304 219.692 C 92.761 221.098,94.783 223.419,94.783 223.685 C 94.783 223.803,95.353 224.832,96.050 225.972 C 96.782 227.169,97.427 228.961,97.577 230.217 C 97.796 232.043,97.756 232.235,97.331 231.413 C 97.052 230.875,96.658 230.435,96.455 230.435 C 96.253 230.435,96.087 230.228,96.087 229.974 C 96.087 229.269,91.157 222.951,89.410 221.417 C 87.454 219.700,85.685 218.927,82.391 218.351 C 75.736 217.187,73.054 216.048,70.456 213.283 C 66.477 209.048,50.850 208.378,39.764 211.968 C 34.269 213.747,28.394 218.359,27.179 221.845 C 25.319 227.185,27.000 241.604,29.749 243.885 C 30.391 244.418,32.180 242.460,32.168 241.237 C 32.165 240.915,32.455 239.283,32.812 237.609 C 33.170 235.935,33.566 233.867,33.692 233.014 C 34.005 230.907,35.895 228.112,37.551 227.307 C 39.753 226.238,43.164 225.213,44.515 225.215 C 47.757 225.221,54.524 222.912,57.565 220.763 C 60.111 218.965,61.739 219.113,61.739 221.144 C 61.739 224.392,59.354 226.407,54.039 227.650 C 44.336 229.919,35.864 241.840,38.970 248.855 C 40.904 253.222,49.609 263.478,51.382 263.478 C 51.578 263.478,51.739 263.637,51.739 263.832 C 51.739 266.087,66.055 267.072,72.029 265.227 C 75.229 264.238,78.784 262.345,80.599 260.664 C 81.251 260.060,81.899 259.565,82.040 259.565 C 82.672 259.565,87.391 250.755,87.391 249.576 C 87.391 246.084,90.893 244.953,93.370 247.644 C 94.147 248.488,94.789 249.315,94.796 249.481 C 94.887 251.489,97.618 251.481,103.913 249.454 C 104.750 249.184,106.413 248.828,107.609 248.662 C 108.804 248.496,110.859 248.154,112.174 247.902 C 128.124 244.850,126.836 243.822,126.137 259.049 C 125.467 273.660,125.498 277.412,126.297 278.554 C 127.276 279.951,130.097 280.354,140.652 280.606 C 149.609 280.819,160.886 281.501,164.348 282.040 C 167.959 282.602,163.404 282.998,148.308 283.436 C 130.201 283.960,130.435 283.912,130.435 287.168 C 130.435 295.023,138.026 299.925,150.334 300.019 C 151.705 300.029,153.707 300.231,154.783 300.468 C 155.859 300.704,157.571 301.015,158.587 301.158 C 163.265 301.815,159.680 302.608,152.011 302.611 C 139.380 302.617,138.034 303.000,136.136 307.123 C 132.761 314.456,131.843 320.152,133.261 324.962 C 133.619 326.178,134.317 328.574,134.812 330.285 C 136.473 336.026,137.945 337.492,143.478 338.914 C 152.356 341.194,153.537 341.749,155.504 344.565 C 156.507 346.000,157.341 347.334,157.359 347.529 C 157.377 347.724,157.880 348.525,158.478 349.309 C 159.076 350.093,159.565 350.890,159.565 351.080 C 159.565 352.909,162.605 352.919,166.087 351.101 C 167.641 350.290,169.891 349.121,171.087 348.503 C 172.283 347.885,174.239 346.798,175.435 346.087 C 176.630 345.376,177.902 344.661,178.261 344.499 C 178.620 344.336,179.598 343.692,180.435 343.067 C 181.272 342.441,182.543 341.642,183.261 341.291 C 183.978 340.940,185.376 340.114,186.367 339.457 C 187.359 338.799,188.386 338.261,188.650 338.261 C 188.914 338.261,189.130 338.089,189.130 337.879 C 189.130 337.669,189.717 337.254,190.435 336.957 C 191.152 336.659,191.739 336.244,191.739 336.034 C 191.739 335.824,191.984 335.647,192.283 335.640 C 193.269 335.619,195.905 333.132,195.435 332.666 C 195.004 332.239,192.097 331.637,183.696 330.233 C 181.304 329.833,177.685 329.227,175.652 328.886 C 173.620 328.545,170.698 328.073,169.160 327.837 C 165.576 327.286,165.418 327.093,165.529 323.414 C 165.629 320.121,166.661 316.792,168.471 313.924 C 169.073 312.971,169.565 312.084,169.565 311.954 C 169.565 311.568,172.283 308.696,172.647 308.696 C 174.159 308.696,174.752 311.309,173.766 313.630 C 171.584 318.771,171.108 321.196,172.174 321.752 C 173.588 322.491,179.889 323.868,189.130 325.457 C 191.402 325.848,194.471 326.442,195.949 326.777 C 198.981 327.464,200.000 327.264,200.000 325.982 C 200.000 323.544,201.032 321.721,203.438 319.910 C 204.775 318.903,206.247 317.731,206.707 317.305 C 207.709 316.380,208.063 316.561,207.430 317.675 C 206.113 319.995,204.783 325.575,204.783 328.778 L 204.783 332.146 202.460 333.899 C 201.183 334.863,199.928 335.652,199.671 335.652 C 199.413 335.652,199.138 335.799,199.058 335.978 C 198.838 336.473,196.185 338.261,195.670 338.261 C 195.421 338.261,195.216 338.408,195.215 338.587 C 195.212 338.903,194.014 339.689,190.870 341.437 C 190.033 341.902,189.250 342.405,189.130 342.554 C 189.011 342.704,188.601 343.022,188.219 343.261 C 187.837 343.500,185.783 344.852,183.654 346.265 C 181.525 347.679,177.924 350.046,175.652 351.525 C 168.653 356.084,166.847 357.295,163.696 359.544 C 158.885 362.978,158.690 362.859,154.795 354.130 C 151.087 345.820,149.694 344.348,145.540 344.348 C 143.865 344.348,138.171 343.569,131.304 342.400 C 129.272 342.054,125.457 341.555,122.826 341.291 C 120.196 341.027,116.528 340.535,114.677 340.198 C 112.579 339.816,110.940 339.727,110.329 339.961 C 109.223 340.387,103.774 344.641,103.551 345.254 C 103.471 345.473,103.247 345.652,103.052 345.652 C 102.857 345.652,102.140 346.130,101.458 346.715 C 100.776 347.299,99.759 348.137,99.200 348.576 L 98.182 349.376 99.200 349.853 C 99.759 350.116,101.098 350.672,102.174 351.090 C 103.250 351.507,104.717 352.109,105.435 352.427 C 106.152 352.744,108.011 353.479,109.565 354.059 C 111.120 354.640,112.685 355.227,113.043 355.364 C 114.571 355.949,108.649 355.045,105.870 354.270 C 104.196 353.802,101.910 353.251,100.790 353.045 C 99.670 352.839,98.362 352.461,97.884 352.205 C 92.291 349.211,91.908 354.268,97.105 362.500 C 97.741 363.507,98.261 364.448,98.261 364.592 C 98.261 364.993,101.460 369.763,101.839 369.928 C 102.023 370.007,102.174 370.256,102.174 370.480 C 102.174 370.704,102.704 371.714,103.352 372.726 C 104.000 373.738,105.093 375.641,105.781 376.957 C 106.469 378.272,107.309 379.657,107.647 380.034 C 107.984 380.412,108.261 380.832,108.261 380.969 C 108.261 381.105,108.967 382.264,109.831 383.543 C 110.695 384.823,111.578 386.261,111.794 386.739 C 112.010 387.217,112.573 388.196,113.045 388.913 C 113.517 389.630,114.043 390.511,114.213 390.870 C 114.384 391.228,114.992 392.207,115.566 393.043 C 116.139 393.880,116.784 394.957,116.999 395.435 C 117.423 396.379,117.443 396.412,120.688 401.521 C 121.903 403.435,123.272 405.685,123.731 406.522 C 124.190 407.359,124.663 408.141,124.783 408.261 C 125.137 408.616,126.060 410.153,126.479 411.087 C 127.239 412.783,131.225 415.652,132.819 415.652 C 133.499 415.652,137.687 417.140,140.652 418.435 C 141.370 418.748,142.697 419.326,143.602 419.720 C 144.507 420.113,145.495 420.435,145.797 420.435 C 146.100 420.435,146.576 420.663,146.856 420.943 C 147.359 421.446,148.429 421.883,153.043 423.471 C 154.359 423.923,156.784 424.795,158.433 425.408 C 160.083 426.020,161.795 426.522,162.239 426.522 C 163.546 426.522,169.565 422.902,169.565 422.116 C 169.565 421.909,169.775 421.739,170.031 421.739 C 170.287 421.739,170.814 421.422,171.202 421.034 C 172.212 420.024,178.066 415.652,178.408 415.652 C 178.566 415.652,179.038 415.351,179.457 414.982 C 180.687 413.899,187.169 409.280,188.304 408.677 C 189.283 408.158,192.166 406.099,194.130 404.517 C 194.609 404.132,196.074 403.118,197.386 402.264 C 199.918 400.616,200.437 400.232,201.770 399.022 C 202.231 398.603,202.695 398.261,202.800 398.261 C 203.056 398.261,209.581 393.699,210.543 392.847 C 210.962 392.477,211.410 392.174,211.540 392.174 C 211.670 392.174,212.012 391.969,212.301 391.719 C 212.590 391.469,214.147 390.326,215.762 389.179 C 217.376 388.033,219.431 386.422,220.327 385.600 C 221.223 384.778,222.641 383.628,223.478 383.045 C 224.827 382.105,230.580 377.476,234.098 374.499 C 234.798 373.907,236.217 372.815,237.251 372.072 C 238.284 371.330,239.130 370.560,239.130 370.361 C 239.130 370.162,239.317 370.000,239.546 370.000 C 239.774 370.000,240.661 369.525,241.517 368.944 C 244.171 367.143,247.577 367.014,246.153 368.768 C 243.697 371.794,242.424 373.003,238.980 375.584 C 231.825 380.946,229.727 383.478,232.442 383.478 C 232.733 383.478,233.036 383.659,233.116 383.879 C 233.304 384.399,236.559 385.549,255.253 391.697 C 266.689 395.457,266.000 395.503,267.827 390.868 C 268.783 388.442,270.191 385.245,271.943 381.522 C 273.520 378.170,274.584 375.602,275.186 373.696 C 275.488 372.739,276.286 370.783,276.959 369.348 C 277.632 367.913,279.008 364.685,280.017 362.174 C 282.153 356.855,282.925 355.028,283.749 353.334 C 284.078 352.657,284.348 351.925,284.348 351.707 C 284.348 351.488,285.228 349.438,286.304 347.150 C 287.380 344.863,288.261 342.795,288.261 342.556 C 288.261 342.153,289.616 338.971,291.108 335.870 C 292.892 332.163,292.281 330.914,287.488 328.465 C 286.120 327.766,284.358 326.722,283.574 326.144 C 282.002 324.987,279.078 323.287,277.391 322.551 C 276.793 322.290,275.785 321.804,275.150 321.473 C 272.886 320.289,270.808 321.535,269.074 325.116 C 267.878 327.588,267.507 326.919,267.435 322.157 C 267.364 317.503,265.855 312.568,263.357 308.823 C 261.974 306.748,257.507 302.609,256.652 302.609 C 256.341 302.609,256.087 302.451,256.087 302.258 C 256.087 302.064,255.255 301.557,254.239 301.129 C 253.223 300.702,251.804 300.101,251.087 299.793 C 248.417 298.650,245.293 297.898,240.217 297.179 C 233.771 296.266,233.867 296.295,235.354 295.704 C 237.242 294.953,245.969 295.089,248.510 295.909 C 251.901 297.002,257.655 299.991,259.294 301.510 C 263.323 305.244,266.620 304.722,268.770 300.010 C 269.906 297.521,270.218 286.312,269.186 285.067 C 268.436 284.164,261.592 284.091,249.311 284.856 C 237.843 285.570,223.232 284.198,223.067 282.391 C 223.011 281.775,240.152 280.521,259.130 279.753 C 272.144 279.226,276.753 277.741,276.336 274.207 C 276.190 272.969,275.896 266.967,275.682 260.870 C 275.080 243.681,274.970 242.411,272.990 230.000 C 272.295 225.641,271.316 214.911,271.305 211.522 C 271.299 209.848,271.174 207.745,271.025 206.848 L 270.756 205.217 267.585 205.217 C 264.572 205.217,261.892 205.606,258.069 206.597 C 252.195 208.120,242.084 208.627,233.913 207.809 C 229.793 207.396,227.751 207.054,220.652 205.587 C 218.271 205.095,212.174 202.287,212.174 201.683 C 212.174 201.475,211.922 201.304,211.614 201.304 C 210.519 201.304,205.014 194.962,203.478 191.930 C 199.756 184.583,202.471 171.290,209.091 164.451 C 214.045 159.333,219.413 156.752,230.585 154.118 C 233.790 153.363,234.833 153.470,232.514 154.317 C 223.908 157.459,216.126 163.935,213.146 170.435 C 212.324 172.228,211.427 174.166,211.152 174.742 C 210.286 176.554,210.534 189.416,211.476 191.522 C 213.520 196.093,214.013 196.904,215.643 198.367 C 220.811 203.006,228.928 204.815,244.668 204.835 C 254.113 204.847,256.843 204.617,261.440 203.423 C 265.714 202.313,271.291 201.766,273.792 202.212 C 279.899 203.301,285.846 205.529,287.616 207.391 C 290.170 210.077,291.760 212.015,291.987 212.717 C 292.122 213.136,292.415 213.478,292.638 213.478 C 292.861 213.478,293.043 213.755,293.043 214.094 C 293.043 214.433,293.192 214.775,293.373 214.855 C 293.554 214.935,294.372 215.880,295.192 216.957 C 300.774 224.288,303.735 224.910,309.178 219.891 C 310.280 218.875,311.650 217.669,312.221 217.212 C 314.885 215.082,319.645 210.796,322.589 207.877 C 324.371 206.110,325.891 204.847,325.966 205.071 C 326.138 205.589,321.343 213.987,320.420 214.783 C 319.544 215.538,319.112 217.820,319.509 219.604 C 319.743 220.659,320.175 223.221,320.468 225.298 C 321.014 229.166,321.006 229.292,319.471 240.942 C 318.846 245.681,319.476 248.864,321.433 250.866 C 322.818 252.282,326.324 254.783,326.925 254.783 C 327.123 254.783,327.528 255.076,327.826 255.435 C 328.124 255.793,328.670 256.087,329.041 256.087 C 329.411 256.087,330.023 256.366,330.401 256.707 C 332.849 258.918,341.916 258.892,344.141 256.667 C 344.460 256.348,344.832 256.087,344.969 256.087 C 347.682 256.087,350.231 245.409,348.554 241.071 C 346.453 235.638,342.311 235.188,335.652 239.672 C 331.485 242.479,328.597 242.299,330.195 239.333 C 332.818 234.461,342.584 231.329,348.628 233.420 C 352.000 234.587,359.811 238.402,360.435 239.186 C 360.735 239.564,364.308 242.235,365.746 243.156 C 368.177 244.715,372.609 242.930,372.609 240.392 C 372.609 240.033,372.841 239.507,373.124 239.224 C 374.014 238.334,374.093 229.149,373.281 220.885 C 372.594 213.878,372.294 212.239,370.771 207.174 C 370.141 205.080,368.759 202.609,368.218 202.609 C 368.002 202.609,367.818 202.364,367.809 202.065 C 367.769 200.780,362.999 198.024,357.406 196.054 C 354.335 194.973,345.035 194.860,342.174 195.870 C 338.298 197.237,334.849 196.314,334.797 193.896 C 334.705 189.646,332.692 186.954,323.434 178.696 C 317.620 173.510,315.445 171.530,314.478 170.543 C 313.951 170.005,313.403 169.565,313.261 169.565 C 313.118 169.565,312.571 169.113,312.044 168.560 C 311.518 168.006,309.326 166.012,307.174 164.127 C 305.022 162.242,302.772 160.225,302.174 159.643 C 301.576 159.062,299.913 157.685,298.478 156.582 C 297.043 155.479,295.478 154.160,295.000 153.651 C 291.979 150.435,287.860 149.668,271.094 149.195 C 258.513 148.840,259.179 148.974,258.017 146.561 C 256.386 143.174,247.769 141.110,238.261 141.827 C 233.472 142.188,232.937 141.800,233.113 138.096 L 233.261 135.000 226.957 134.708 C 220.223 134.395,218.627 134.116,217.014 132.970 C 215.279 131.736,216.285 131.304,220.891 131.304 C 231.086 131.304,242.400 129.647,244.013 127.917 C 246.318 125.447,246.310 125.572,246.233 94.138 C 246.136 54.660,246.241 55.170,236.587 47.319 C 233.864 45.104,227.429 43.070,223.094 43.054 C 216.843 43.031,216.226 42.348,215.959 35.147 C 215.803 30.962,215.610 29.817,214.853 28.592 C 213.678 26.691,211.911 24.783,211.325 24.783 C 211.075 24.783,210.870 24.632,210.870 24.447 C 210.870 23.430,201.586 19.815,195.102 18.308 C 192.369 17.672,181.724 17.792,178.696 18.492 M187.304 67.813 C 192.350 71.468,188.600 79.673,182.693 77.903 C 179.143 76.839,177.313 71.026,179.828 68.804 C 182.727 66.243,184.765 65.973,187.304 67.813 M148.124 69.689 C 148.646 69.980,149.072 70.315,149.071 70.435 C 149.070 70.554,149.279 71.203,149.535 71.876 C 151.392 76.762,148.036 83.360,145.227 80.345 C 141.667 76.523,144.129 67.468,148.124 69.689 M184.371 103.316 C 186.210 111.253,174.182 122.578,163.913 122.578 C 160.570 122.578,153.478 120.473,153.478 119.482 C 153.478 119.288,153.204 119.130,152.870 119.130 C 150.670 119.130,146.505 112.431,146.552 108.969 C 146.579 107.046,147.276 104.072,147.361 105.519 C 147.441 106.886,154.176 112.856,156.477 113.599 C 160.364 114.854,171.283 113.235,173.947 111.009 C 174.325 110.693,174.836 110.435,175.083 110.435 C 175.696 110.435,178.938 106.887,181.311 103.620 C 183.403 100.740,183.765 100.704,184.371 103.316 " stroke="none" fill="#000000" fill-rule="evenodd"></path></g></svg>