<svg version="1.1" id="Layer_1" xmlns="http://www.w3.org/2000/svg" xmlns:xlink="http://www.w3.org/1999/xlink" x="0px" y="0px"
	 viewBox="0 0 792 612" style="enable-background:new 0 0 792 612;" xml:space="preserve">
<style type="text/css">
	.st0{clip-path:url(#SVGID_2_);}
	.st1{filter:url(#a);}
	.st2{mask:url(#d_1_);}
	.st3{fill:#662D91;}
</style>
<filter  height="100%" id="a" width="100%" x="0%" y="0%">
	<feColorMatrix  color-interpolation-filters="sRGB" values="0 0 0 0 1 0 0 0 0 1 0 0 0 0 1 0 0 0 1 0"></feColorMatrix>
</filter>
<g>
	<defs>
		<rect id="SVGID_1_" x="135.5" width="520.5" height="612"/>
	</defs>
	<clipPath id="SVGID_2_">
		<use xlink:href="#SVGID_1_"  style="overflow:visible;"/>
	</clipPath>
	<g class="st0">
		<defs>
			<filter id="Adobe_OpacityMaskFilter" filterUnits="userSpaceOnUse" x="135.2" y="0" width="521.3" height="612">
				<feColorMatrix  type="matrix" values="1 0 0 0 0  0 1 0 0 0  0 0 1 0 0  0 0 0 1 0"/>
			</filter>
		</defs>
		<mask maskUnits="userSpaceOnUse" x="135.2" y="0" width="521.3" height="612" id="d_1_">
			<g class="st1">
				<g transform="matrix(-.56658 0 0 .56614 656.474 0)">
					
						
				</g>
			</g>
		</mask>
		<g class="st2">
			<g transform="matrix(-.56658 0 0 .56614 656.474 0)">
				<g>
					<path class="st3" d="M920,1081c-306.7,0-613.3,0-920,0C0,720.7,0,360.3,0,0c306.7,0,613.3,0,920,0
						C920,360.3,920,720.7,920,1081z M831.7,453.7c-0.6-1.2-1.1-3.3-2-3.5c-6-1.3-12.1-2.5-18.2-3.1c-7.5-0.7-15.1-0.8-22.7-1
						c-0.6,0-1.2,0.9-1.9,1c-2.7,0.5-5.6,1.5-8.2,1c-2.7-0.5-5.1-2.4-8.6-4.2c0.4,2,0.4,3.8,1.1,5c3,5.1,8.2,3.5,12.1,2.5
						c13.9-3.5,27.7-4,41.5,0.4C827.1,452.5,829.5,453,831.7,453.7c4.8,3.4,10.4,6.1,14.1,10.5c7.6,9,10.6,20.1,11.3,31.8
						c0.5,7.4,1.7,14.7,2.1,22.1c0.8,14.5,3.8,29.4-6.9,42.4c1.3,0.2,2.7,0.7,3,0.3c4.2-4.6,7.3-10.2,7.4-16.2c0.2-11-0.4-22.1-2-33
						c-1.4-9.2-0.7-18.5-2.8-27.7c-1.1-5-3-9.3-4.5-13.9c-2.8-8.7-10-11.1-16.4-14.9C835.6,454.2,833.5,454.2,831.7,453.7z
						 M356.3,344.8c15.9-0.7,31.8-1.4,47.7-1.9c4.4-0.2,8.8-0.4,13.2,0.2c1.4,0.2,3,2.5,3.6,4.2c1,2.7,1.1,5.7,1.7,8.5
						c0.6-0.1,1.3-0.3,1.9-0.4c-0.8-4-1.5-8-2.5-12c-0.2-0.9-1.4-2.1-2.2-2.2c-4.6-0.5-9.3-1.6-13.7-0.9c-9.7,1.6-19.2,1.3-29.9-0.9
						c8.1-0.9,15.6-0.3,22-2.8c7.2-2.8,14.1-1.4,21.1-1.6c3-0.1,5.9,2.2,8.8-1c0.6-0.7,3.1,0.3,4.7,0.4c3.1,0.2,6.3,0.6,9.4,0.4
						c2.4-0.2,4.6-2,6.9-2c10.8,0.1,21.6,0.5,32.4,0.8c0.1,0.5,0.3,1,0.4,1.5c-1.3,0.6-2.6,1.8-3.9,1.8c-5.1-0.2-10-0.2-15.2-1.5
						c-5.6-1.4-12,0.5-18,1.2c-2.6,0.3-5.4,1-7.7,2.3c-4.6,2.8-2.3,7.6-2.5,11.7c1.1-1.1,2.1-2.3,2.2-3.6c0.3-4.6,2.9-6,7.2-6.2
						c12.1-0.5,24.1-1,36.2-1.9c5.2-0.4,10.3-1.7,15.4-2.5c0-0.8,0-1.6,0-2.3c-7.3-0.9-14.5-2.7-21.8-2.6c-25.1,0.2-50.2,1-75.2,1.8
						c-4.9,0.1-9.8,1.2-14.8,1.5c-8.8,0.6-17.7,1.1-26.4,1.6c-0.4-2.6-0.6-4.2-0.9-6.2c-2.5,0.8-4.7,1-2.9,4.2
						c1.9,3.3,3.6,6.4,8.4,5.8c3.2-0.4,6.5-0.1,9.8-0.1c-3.6,1-7.3,1.2-10.9,0.9c-3.1-0.2-4.7,0.7-4.6,4c-4.1-0.3-8.3-2.3-12.1,0.3
						c0.1,0.6,0.2,1.2,0.2,1.8C348.5,346.3,352.4,345.5,356.3,344.8z M348.3,270.2c0.6,1,0.9,2.3,1.7,2.9c13.4,9.3,27.9,11.5,43,5.6
						c13.4-5.2,23.6-14.6,29.7-27.7c2.8-6,2.7-12.6-1.1-19.3c-1.9,2.8-3.4,5.1-5,7.4c-5.8,8.4-11.9,16.3-22.6,18.8
						c-5.4,1.3-10.8,2.6-16.2,3.9c-8.6,2-17.1,2-24.2-3.8c-5.4-4.4-10.2-9.6-15.2-14.4c-3.8,7.8-0.5,20.6,7.3,24.1
						C346.7,268.5,347.5,269.3,348.3,270.2z M156.9,485.1c0.8-5.7-3.4-2.2-5-2.4c-7.1-1.1-14.3-1.7-21.4-2.6
						c-3.2-0.4-6.4-1.4-9.5-1.9c-0.9-0.2-2.4,0-2.7,0.5c-2.6,4.7-6.8,1.9-10.3,2.4c-4.4,0.6-9.1,0-13.2,1.3
						c-6,1.9-11.9,4.5-17.2,7.8c-5.6,3.5-10.4,8.2-15.4,12.6c-1,0.9-2,2.1-2.3,3.4c-1.1,3.7-2.3,7.4-2.6,11.1
						c-0.2,2.3,1.6,4.7,1.6,7.1c0.2,8.2-0.4,16.4,0.2,24.5c0.3,4.2,1.9,8.7,4.2,12.3c1.3,2.1,5.4,3.7,7.8,3.3c1.9-0.3,4.3-4,4.6-6.4
						c1.2-9.4,2.7-18.7,7.3-27.2c0.9-1.6,2.4-3.3,4-3.8c6.9-2.3,13.9-4.4,21-6c9.7-2.2,19.3-4.4,27.6-10.2c0.9-0.6,2.4-0.4,3.6-0.6
						c-0.6,1.2-0.9,2.9-1.9,3.5c-3.1,1.7-6.4,3.1-9.7,4.4c-5.8,2.2-12.2,3.2-17.3,6.4c-8.3,5.2-15.8,11.8-19.1,21.7
						c-0.3,0.9-0.8,1.9-1.6,2.4c-4.7,3.1-3.9,7.5-3.1,12.1c1.7-2.4,3.2-4.9,4.1-7.5c3.6-10,9.9-18,19-23.2c6.8-3.8,14.5-6.2,22-8.6
						c6.5-2.1,12.6-9.7,8.9-16.6c-2.1,0.7-4.5,1.1-6.6,2.2c-3.8,1.8-7.2,4.7-11.1,5.9c-10.4,3.1-20.9,5.7-31.5,8.3
						c-8.8,2.1-13.9,8.3-14.7,17.3c-0.5,6-1.7,12-3.1,17.8c-0.5,2.1-2.6,3.8-4,5.7c-0.6,0-1.2,0-1.7,0c-1.7-4-4.4-7.8-4.8-11.9
						c-1.2-10.8-1.7-21.7-2-32.6c-0.2-5.5,1.6-10.7,6-14.5c3.6-3.1,7.2-6.3,11.2-8.9c13.5-8.9,29-11.3,44.7-12
						c11.3-0.5,22.5,0.4,33.3,3.9c1.8,1.6,3.6,3.2,5.5,4.8c7.9,6.9,16.8,11.1,27.5,10.5c0.3,0.4,0.7,1,1.1,1
						c9.9,1.1,16.3,7.4,22,14.7c4.1,5.3,8,10.8,12.7,17.1c-3.2-23.5-20.4-33.7-37.6-44.6c2.1-1.1,3.5-2.1,5-2.5
						c8.6-2.3,17.3-4.1,25.7-6.9c11.3-3.8,22.7-7.7,33.5-12.6c11.2-5,18.8-14.7,26.9-23.5c1.5-1.6,3.9-2.5,5.9-3.7
						c1.3,2.2,3.5,4.3,3.8,6.6c1.3,9,2,18,3,27c0.3,2.7,1,5.4,1.6,8.1c0.7-0.1,1.3-0.1,2-0.2c0.7-18.7,1.7-37.3,2.2-56
						c0.3-13.2,0.4-26.3,0-39.5c-0.3-8.9,1.8-16.8,7.5-23.5c5.8-6.8,13.1-11.2,22.2-12.5c4.9-0.7,9.7-2.1,14.5-3.2
						c-0.1-0.5-0.2-1-0.3-1.5c-1-0.1-2.1-0.4-3.1-0.2c-5.8,0.9-11.6,1.7-17.3,2.9c-7.5,1.5-12.8,6.3-17.3,12.3
						c-2.3,3.1-5.7,5.8-7,9.3c-1.4,3.7-1,8.1-1,12.2c-0.1,19.7,0.1,39.3-0.2,59c0,3.1-1.5,6.2-2.4,9.3c-0.6,0-1.1,0-1.7,0
						c3.6-7-3.5-8.9-5.6-13.2c-0.3-0.5-2.3-0.9-2.9-0.4c-2.2,1.4-4.5,3-6.3,5c-2.2,2.4-3.5,5.6-5.9,7.7c-6.3,5.5-13.2,10.4-19.4,16
						c-4.7,4.2-10.6,4.7-16,6.5c-8.8,3-17.9,4.9-26.9,7.3c-3.8,1-7.5,2.6-11.3,2.9c-5.3,0.4-9.8,1.7-13.3,7.5c4,3.7,8.1,7.5,12.9,12
						c-2.9,0-4.9,0-7,0c-1.7-1.4-3.1-3.6-5.1-4.2c-8.9-2.4-18-4-24.3-11.7C159.4,484.9,157.9,485.2,156.9,485.1z M436,781.9
						c4.8-3.3,9.8-6.4,14.3-10.1c1.8-1.5,3-4.3,3.3-6.6c0.1-0.8-3.4-2.1-5.3-3.1c-0.8-0.4-2.3-0.4-2.6-1c-1.4-2.9-3.5-1.7-5.8-1.7
						c-5-0.1-10.5,0.2-14.7-1.8c-3.3-1.6-4.7-0.7-7.1,1.2c10.6,1.9,21.2,3.8,33.3,5.9c-2.5,2.4-3.6,3.8-5.1,4.7
						c-21.7,13.1-43.4,26.2-65.2,39.1c-6.1,3.6-10.9,3.2-13.5-0.3c-2.1-2.9-4-6-5.8-9.1c-4.6-8-9.4-15.4-19.9-16.6
						c-6.3-0.7-12.5-2.7-18.6-4.8c-4.2-1.4-8-3.6-9.6-8.4c-1.6-4.7-3.6-9.3-5.5-13.9c-1.2,1.6-1.9,3.5-1.4,4.9c1.7,4.4,4,8.6,5.9,13
						c1.9,4.3,5.1,7.3,9.6,8.6c7,2,14,4.4,21.2,5.7c9.5,1.7,12.5,9.7,16.2,16.2c3.8,6.8,12.6,12,19.9,8.8c6-2.7,11.9-5.7,17.7-8.8
						c6.1-3.3,12-7.2,18.1-10.6c6.4-3.5,12.9-6.8,19.4-10.2c-0.2,0.6-0.1,1.5-0.5,1.7c-6.4,4-13,7.7-19.3,11.8
						c-5.2,3.4-10.2,7.2-15.3,10.9c-2.5,1.9-4.7,4.5-7.5,5.7c-7.5,3.1-13.8,7.7-19.4,13.5c-1.3,1.3-2.4,2.8-3.5,4.2
						c-1.2-0.8-2.7-1.4-3.4-2.6c-1.2-2-1.8-4.4-2.7-6.6c-1-2.3-2.9-4.4-3.2-6.7c-1.2-9.6-8.8-15.6-13.2-23.2
						c-2.6-4.5-16.4-5.1-22.7-1.3c3.3,0.7,5.5,1.3,7.8,1.6c2.4,0.4,4.9,0.3,7.3,0.7c8.3,1.4,10.9,8.2,13.8,14.7
						c3,6.6,5.8,13.4,9.1,19.9c1.3,2.5,3,5.8,7.1,3.4c1.9-0.9,4-1.5,5.8-2.6c15-10,29.8-20.2,44.8-30.2
						c15.8-10.5,31.8-20.7,47.4-31.4c1.9-1.3,3.6-4.6,3.4-6.9c-0.7-10.9,2.6-20.8,6.9-30.8c-3.9,2.3-7.6,4.8-10.9,7.7
						c-2,1.7-3.9,3.9-5.1,6.3c-1.4,2.8-1.1,7.4-3.1,8.7c-2.1,1.3-6.2-0.2-9.4-0.8c-16.8-3.1-33.5-6.4-50.3-9.5
						c-3.1-0.6-5.6-1.8-4.6-5.5c0.8-2.8,2.4-5.4,3.3-8.2c1.3-4,2.6-8.1,3.2-12.3c0.2-1.4-1.4-3.5-2.8-4.5c-0.6-0.4-3.1,0.7-3.9,1.7
						c-2.8,3.6-6,7.2-7.5,11.3c-2.7,7.2-4.7,14.7-6.2,22.2c-0.4,1.9,1.5,4.9,3.2,6.5c1.3,1.2,4,1,6,1.4c0.1-0.4,0.1-0.9,0.2-1.3
						c-1.9-0.5-3.8-0.8-5.5-1.6c-0.8-0.4-1.9-1.9-1.7-2.6c0.7-3.3,1.5-6.7,2.7-9.8c2.3-6,4.9-11.8,7.4-17.7c0.6,0.2,1.1,0.4,1.7,0.7
						c-0.8,2.2-1.4,4.5-2.3,6.7c-3.7,8.8-1.9,13.9,7,17c6.2,2.2,12.8,3.4,19.4,4.6c11.2,2,22.6,2.4,33.7,5.8c8,2.4,10.4,0,13.2-8
						c0.3-1,0.9-1.9,1-2.1c0.9,3.3,2,7.1,2.9,10.9c0.3,1.1,0.5,2.8-0.1,3.4c-3.9,3.7-7.8,7.3-12,10.6c-3.1,2.5-7,4.1-9.9,6.8
						C443.8,780.2,440.9,783,436,781.9z M636.1,636.3c-3.1,1.2-6.1,2.9-9.3,3.4c-8.1,1.3-16.3,2.3-24.5,2.9c-19,1.4-38,2.4-57,3.6
						c-10.2,0.6-20.5,1.3-30.7,2c-0.7,0.1-1.4,0.8-2.4,1.4c0.7,0.7,1,1.2,1.4,1.3c12.5,1.7,25.1,4.6,37.6,4.8
						c20.9,0.3,41.8-0.9,62.7-1.7c4.3-0.2,6.1,1.6,6.1,5.7c0,7.6,0.4,15.2-0.2,22.7c-0.3,3.9-1.6,8.3-3.8,11.5
						c-4.1,6-9.2,7.1-15.2,3.1c-5.6-3.6-11-7.5-16.7-11c-13.3-8.2-27.9-7.9-42.6-5.8c-0.8,0.1-1.6,0.7-3.2,1.5
						c4.4,0.6,7.8,1,11.2,1.5c10.7,1.6,21.5,3,31.5,7.7c18.6,8.6,30.8,22.2,33.5,43c0.8,5.8,0.6,11.7,1,18.8
						c4.4-5.9,7.9-10.5,11.4-15.3c-4.2-4.7-5.3,3.7-8.5,2.9c-0.6-2.7-1.1-5.3-1.7-7.8c-0.8-3.4-3.2-7.1-2.4-10
						c1.9-7-5.2-9.2-6.2-14.4c-0.1-0.4-1.2-0.6-1.6-1c-1-1-1.8-2.1-3.2-3.8c2.5-0.1,3.9-0.4,5.3-0.2c4.4,0.6,7.9-1.5,9.6-4.9
						c2.6-5.3,4.5-11.1,5.7-16.9c0.8-3.9,2.2-8-0.7-12.5c-1.8-2.8-0.8-7.4-1.4-11.1c-0.2-1.7-1.1-4.7-1.7-4.7c-3.3-0.2-6-6.1-10-1.1
						c-0.7,0.8-3.2,0.4-4.8,0.1c-3.4-0.5-6.7-1.4-10.1-1.9c-7.9-1.2-15.6,3.2-23.6,1c-0.2,0-0.3,0-0.5,0c-8,0.4-16,0.9-23.9,1.3
						c3.8-2.4,7.6-4,11.5-5.4c0.6-0.2,1.5,0.2,2.2,0.4c1.4,0.5,2.8,1.5,4.2,1.5c5.4-0.1,10.9-0.7,16.3-0.9c2.9-0.1,6,1.2,8.8,0.8
						c13.5-2.1,27-4.4,40.4-7c2.5-0.5,6.5-0.4,6.4-4.9c0.3-1.5,1.1-3.1,0.9-4.5c-0.8-8.5-1.7-17-0.9-25.7c0.5-6.3-0.9-12.8-1-19.2
						c-0.1-3,1.3-6.1,1.1-9.2c-0.7-9.8-1.7-19.6-3-29.4c-0.4-3.4-2-6.7-3.1-10c0.2,13.5,1.7,26.6,2.5,39.7
						C634.5,597.9,635.2,617.1,636.1,636.3z M750.4,472.8c-0.3-0.3-0.7-0.7-1-1c-1.7,1.2-3.5,2.2-5,3.6
						c-12.3,11.1-24.5,22.3-36.7,33.3c-6.7,6.1-13.8,6.8-18.8,1.4c-5.3-5.7-10.1-11.8-14.9-18c-6.9-8.9-13.1-17.9-24.8-22
						c-13.7-4.9-27.4-7.4-41.5-3.8c-16.6,4.2-33.3,5.8-50.5,5.4c-14.7-0.4-29-1.9-43.1-5.8c-10.3-2.9-19.9-7.6-24.6-17.9
						c-2.5-5.6-3.6-11.9-4.5-18c-1.6-10.3-1.6-20.5,2-30.6c7-19.3,21.5-31.2,38.9-40.4c3.6-1.9,7.3-3.4,11-5.1
						c-0.2-0.4-0.3-0.8-0.5-1.2c-10.4,3.1-21,5.4-31,9.4c-7.3,2.9-14.3,7.4-20.6,12.3c-9.2,7.1-13.9,17.5-17.6,28.3
						c-4.2,12.2-5.2,24.6-0.1,36.7c8.6,20.3,25,31.1,46,35.1c10,1.9,20.2,3.2,30.3,4c9.2,0.8,18.7,1.5,27.8,0.5
						c13-1.5,25.9-4.7,38.8-7c11.3-2.1,13.7,0.2,14,11.4c0.3,11.7,1.1,23.5,1.9,35.2c0.3,4.2,1.6,8.4,2.5,13
						c3.6-3.9,1.2-7.1,0.7-10.6c-1.7-10-2.5-20.2-3.2-30.4c-0.3-4.5,0.7-9.2,0.8-13.7c0-1.2-0.6-3-1.5-3.6c-2-1.5-4.5-2.4-6.9-3.6
						c8.3-1.3,16.3-0.3,23.9,2.6c5.8,2.2,12,4.2,16.6,8c5,4.1,9.2,9.7,12.1,15.4c3,5.9,9.5,7.8,12.2,14.5c4.2,10.6,18.3,7.8,25,3.2
						c5.5-3.8,10.2-8.8,15.4-13.1c2.1-1.8,4.3-3.3,5.9-4.5c0.8,3.9,1.5,7.7,2.4,11.5c0.5,2.1,1.6,4,2.1,6.1c1.9,8.5,2.3,17-0.9,25.4
						c-0.6,1.5,0.5,3.5,0.7,5.3c0.1,1.1,0.4,2.4,0.1,3.4c-1.1,3.6-3,7-3.6,10.6c-1.4,8,0.4,16.2,6,21.5c6.3,6,14.3,10.5,22.1,14.7
						c4.4,2.4,9.8,3,14.8,4.5c0.4-0.5,0.7-1,1.1-1.5c-1-0.9-1.9-2.5-3.1-2.7c-9.3-2-17.4-6.2-25.3-11.4c-7.9-5.2-12.6-12-11.9-21.8
						c0.5-6.7,0.5-13.7,2.2-20.1c3.2-12.2,0.7-24-1.5-35.7c-0.9-4.8,0.3-7.9,2.7-11.6C741.9,486.7,746.1,479.7,750.4,472.8z
						 M243.7,867.7c-0.6,0.3-1.3,0.6-1.9,1c1.4,3.3,2,7.7,4.5,9.7c5.6,4.3,6.7,11,10.2,16.3c3.9,5.8,5.9,12.9,11.5,17.7
						c0.9,0.8,1.6,2,2.2,3.1c2.7,5.2,5.1,10.4,8,15.5c2.7,4.8,6.7,9,8.7,14c2.8,7.2,7.5,11.6,14.6,14c4.2,1.4,8.4,2.6,12.5,4.1
						c3.7,1.3,7.4,2.8,11.1,4.2c7.8,2.9,15.5,5.8,23.3,8.7c4.6,1.7,9.1,3.6,13.7,5.2c3,1.1,6.1,2,9.2,2.7c5.2,1.3,8.5-2.4,12.2-4.9
						c4.8-3.3,9.7-6.6,14.4-10.2c5.4-4.1,10.4-8.7,15.9-12.5c7.9-5.4,16.1-10.3,24.1-15.6c5.3-3.5,10.3-7.3,15.4-11.1
						c5-3.7,9.9-7.5,14.8-11.3c2.6-2.1,5-4.6,7.8-6.4c3.4-2.2,7.3-3.7,10.7-6c3.6-2.4,6.7-5.5,10.2-8.1c5.4-4,10.9-7.8,16.4-11.7
						c5-3.5,10-7.1,16.2-11.5c-2.3,9.7,3.8,12,9.5,14.1c9.6,3.6,19.3,6.8,29,10c11.9,3.9,23.8,7.6,35.8,11.4
						c6.5,2.1,10.9,0.3,13.9-5.7c1.4-2.8,2.5-5.7,3.7-8.5c6.5-15.3,13.1-30.7,19.6-46c6.9-16.2,13.8-32.3,20.7-48.5
						c4.2-10,8.6-20.1,12.3-30.3c1.2-3.2,2.1-8.4,0.4-10.5c-2.6-3.2-7.5-4.5-11.5-6.6c-0.3,0.4-0.5,0.9-0.8,1.3
						c1.5,0.9,2.9,1.8,4.4,2.7c5.7,3.7,6.7,7.2,3.8,13.1c-1.8,3.7-3.5,7.4-5.1,11.1c-6.2,14.6-12.4,29.3-18.5,43.9
						c-6,14.2-11.9,28.5-17.9,42.7c-4.8,11.3-9.7,22.5-14.7,33.7c-2,4.5-5.2,5.4-9.8,3.7c-1.2-0.5-2.4-1.2-3.6-1.6
						c-18.5-6.1-37-12-55.4-18.2c-4.7-1.6-9.2-3.9-14.5-6.1c10.7-13.7,27.9-19.2,36.8-35.3c-2.6,0-4.6-0.6-6,0.1
						c-4.1,2-8.2,4.2-11.7,7c-9,6.9-17.5,14.4-26.5,21.3c-15.6,11.9-31.2,23.7-47,35.3c-11.1,8.1-22.4,15.9-33.7,23.8
						c-9.7,6.8-19.5,13.5-29.1,20.5c-10.6,7.7-20.8,15.9-31.5,23.5c-3,2.1-7.7,4.5-10.7,3.6c-11-3.2-21.7-7.6-32.4-11.7
						c-8.9-3.4-17.6-7-26.5-10.5c-8.5-3.4-17.4-5.3-22.8-14.8c-11.2-20-23.8-39.3-35.7-58.9C250.5,879,247.1,873.3,243.7,867.7z
						 M368.4,694.8c0-0.4-0.1-0.7-0.1-1.1c-4.1-0.8-8.2-1.6-12.3-2.3c-12.5-2.2-25-4-37.4-6.5c-10.9-2.2-16.3-10.1-18.6-20.2
						c-1.7-7.3,0.6-11.1,6.1-11.7c5.1-0.5,10.2-0.9,15.3-1c17.8-0.4,35.6-0.7,53.3-1c1.6,0,3.1-0.6,4.7-0.9c-1.3-1.3-2.6-1.9-3.8-2
						c-19-1-38.1-2-57.1-2.8c-5.2-0.2-10.4,0.3-15.5-0.1c-5.5-0.5-11.5-0.5-14.2-7.1c-0.2-0.6-1.5-0.8-2.7-1.3
						c-1.2,11,8.4,9.7,14,13.2c-0.5,1.6-1.2,3.1-1.3,4.7c-0.5,5.3-1.8,10.7-0.9,15.7c1.7,9,8,14.7,16.7,17.6
						c5.8,1.9,11.7,3.6,17.5,5.4c-3.2,1.2-6.5,1-9.6,1.7c-4.3,1.1-9.1,0.9-11,7c-1.8,5.9-5.9,11.2-7.3,17.1
						c-0.8,3.4-5.3,7.6-0.1,11.9c0.7-1.4,1.3-2.7,1.8-4c2.7-7.8,5-15.9,8.1-23.5c1.4-3.3,3.8-6.5,8.5-6.5
						c12.6-0.1,25.2-0.5,37.8-0.9C363.2,696,365.8,695.2,368.4,694.8z M521,99c6,2.2,11.6,3.9,16.9,6.3c9.8,4.3,18,11.3,22.4,20.8
						c3.4,7.3,4.7,16,5.3,24.3c1,13.7,1.1,27.6,1.1,41.3c-0.1,29.9-0.4,59.9-0.9,89.8c-0.2,13-6.4,16.6-17.1,17.7
						c-15.6,1.6-31.4,2-47.1,3c-1.5,0.1-2.9,0.7-5.8,1.4c13.9,9.9,28.5,4.3,41.9,6.5c-5.7-3.7-12.6-0.3-19.4-2.9
						c5.7-2.1,9.7-6,15.9-3.4c2.5,1.1,6.3-0.6,9.5-1.2c1.7-0.4,3.8-2.2,4.9-1.7c4.2,2.1,7.2-0.7,10.5-1.9
						c7.1-2.7,10.2-7.7,10.1-15.5c-0.5-42.3-0.7-84.5-1.1-126.8c-0.1-5.6-0.6-11.2-1-16.8c-0.3-3.6-0.1-7.3-1.3-10.6
						c-2.6-6.9-7.7-12.5-13.2-17c-6.4-5.4-13.7-9.8-21.1-13.8C528.8,97.1,524.5,95,521,99z M87.1,568c-0.6,0.1-1.1,0.2-1.7,0.3
						c0,1.5-0.6,3.3,0.1,4.4c2.7,4.5,5.5,9.1,8.8,13.2c4.5,5.6,10.1,10.5,14.3,16.3c6.7,9.2,15.6,13.5,26.5,13.6
						c11.1,0.1,22.3,1.3,32.8-4.3c3.2-1.7,7-2.6,10.6-3.6c9.9-2.9,16.3-9.6,20.5-18.8c2.3-5.2,4.5-10.4,6.8-15.6
						c1.6-3.5,3.2-4.7,5.9-0.7c1.6,2.4,3.9,4.3,6.2,6.2c0.7,0.6,2,0.3,3.1,0.4c0-1,0.5-2.4,0-3c-2.4-3-4.9-5.9-7.6-8.6
						c-3.7-3.7-7.7-3.2-10.3,1.6c-1.9,3.6-3.6,7.4-4.9,11.2c-3.2,9.7-9,17.1-17.6,22.6c-11.9,7.5-25.1,9.4-38.7,9.1
						c-5.8-0.2-12.1-0.7-17.4-3c-13.2-5.8-22.1-16.7-29.8-28.5C91.9,576.8,89.6,572.4,87.1,568z M791.5,539.1
						c1.3-0.1,2.2-0.2,3.2-0.1c0.8,0.1,1.6,0.3,2.4,0.5c14,4.3,26.5,11.6,38.2,20.2c3.9,2.9,5.9,3.5,9.5,2.3
						c-0.5-0.5-0.9-1.1-1.4-1.4c-12-7.3-23.5-15.5-36.1-21.6c-15.1-7.3-30-3.5-43.3,5.8c-2.7,1.9-5.7,8.3-4.7,9.6
						c3,3.9,7,0.6,10.4-1.4c4.4-2.6,8.5-5.6,13.1-7.9c7.2-3.6,16.1,0.9,18.3,8.6c0.6,2.2,1.8,4.3,2.9,7
						C808.2,553.8,802.5,544.5,791.5,539.1z M259,818.4c0.1-0.4,0.3-0.8,0.4-1.2c-11-4.4-22.1-8.8-33.8-13.5
						c8.4-7.1,15.6-13.6,23.3-19.2c2.7-2,7-2.7,10.5-2.5c7.4,0.4,14.7,1.8,22.1,2.7c1,0.1,2.1,0,3.2,0c-2.9-1.6-5.8-2.1-8.8-2.3
						c-4.8-0.3-9.5-0.2-13.6-3.8c-1.5-1.4-5.3-1.6-7.3-0.8c-4.4,1.8-8.5,4.5-12.4,7.2c-5.1,3.6-8.1,9.6-14.6,11.7
						c-1.6,0.5-3.5,2.3-4,3.9c-1.6,4.4-4.6,5.9-8.9,6.7c-1.6,0.3-4.1,3.2-3.9,4.6c0.5,4.7,1.6,9.5,3.3,14c0.9,2.4,3.7,3.9,5,6.2
						c1.6,2.7,2.3,5.9,3.7,8.7c2.8,5.3,5.6,10.7,9,15.7c1.5,2.3,4.3,3.9,6.5,5.7c0.3-0.4,0.7-0.8,1-1.2c-4.1-6.9-8.3-13.6-12.3-20.6
						c-4.3-7.5-8.9-14.9-12.4-22.8c-2.6-5.8,0.8-9.7,6.9-8.5c5.5,1.1,10.8,2.9,16.2,4.3C245,815.1,252,816.7,259,818.4z M509.2,98.3
						c-6.6-4.1-12.8-7.2-10.3-15.3c0.4-1.4,1.1-2.8,1.5-4.3c0.3-1,0.5-2.2,0.2-3.2c-0.8-2.5-1.8-4.9-2.8-7.4c-1.1-2.6-1.7-6-3.7-7.4
						c-5.2-3.8-8.3-9.6-15.9-11.5c-8-2-15.6-6.6-24-8.2c-0.5-0.1-0.8-1-1.3-1.2c-2-0.7-4-1.6-6-1.6c-4.2,0-8.5,0.4-12.7,0.9
						c-8.3,1.1-17-2.7-25,2c-0.1,0.1-0.3,0-0.5,0c-4.8-0.5-9.3,0-13,3.7c-0.9,0.9-2.8,0.7-4.1,1.3c-5.1,2.3-10.7,4-15.1,7.3
						c-3.9,2.9-7.7,7.1-4.9,13c2.2-3.2,3.9-7.2,6.8-9.6c11.5-9.4,25.4-14.1,39.8-15.6c22.8-2.3,44.8,1.3,64.7,13.5
						c6.6,4.1,12.8,9.2,13.2,18.1c0.3,5.4,0.7,10.9,0.8,16.3C497.2,96.3,499.6,98.6,509.2,98.3z M704,374.9c0.3-0.3,0.7-0.6,1-0.9
						c-1.3-1.8-2.4-3.9-4.1-5.4c-3.9-3.5-8-6.9-12.2-10c-5.9-4.4-11.2-9.5-18.3-12.5c-11.1-4.7-22.9-3.2-34.3-4.6
						c-7.9-1-16.1-1-23.9,0c-9,1.2-13.4-3.9-18.4-9.7c-2.2-2.5-5.7-5.1-8.9-5.5c-11.3-1.2-22.7-1.7-34-2c-6.4-0.2-12.6,0.1-13.8-9.1
						c-2.5,7.3-1.8,9.8,2.9,10.9c2.4,0.5,5.1-0.2,7.7-0.1c9.2,0.5,18.5,1.7,27.7,1.7c9.3-0.1,15.6,3.6,19.6,12
						c0.5,1.1,2.1,2,3.3,2.2c3.2,0.6,6.6,0.9,9.8,1c14.3,0.4,28.6,0.5,42.8,1.1c5.1,0.2,10.3,0.9,15.1,2.6
						c10.7,3.8,18.6,11.9,27.1,19C696.8,368.5,700.3,371.7,704,374.9z M457.2,647.9c6.9-2.7,4.1-6.3,3.8-9.5
						c-1.3-0.3-2.6-0.5-3.8-0.8c0-2.4,0-4.5,0-6.3c0.8,0.8,1.7,1.7,2.6,2.6c0.5-1.2,1.3-2.3,1.5-3.6c0.6-3.3-1.7-5.4-3-8.1
						c-2.6-5.3-3.1-11.6-4.1-17.5c-0.5-2.7,0.9-6.1-0.4-8c-1.8-2.7-1.1-4.9-0.8-7.4c0.1-0.7-0.5-1.5-0.7-2.2
						c-0.5-1.9-1.7-4.1-1.2-5.7c1.7-6.2,0.8-11.7-2.9-16.9c-0.7-0.9-0.9-2.8-0.4-3.8c3.6-7.2-2.2-12.8-3.2-19.2
						C448.7,576.7,451.3,612.2,457.2,647.9z M365.4,95.3c0.4,0.7,0.8,1.4,1.2,2.1c2.4-1.5,4.9-3,7.3-4.5c2.3-1.4,4.6-3.6,7-3.8
						c9.4-0.7,18.9-0.8,28.3-1.1c9.2-0.3,18.4-0.7,27.6-1.1c-1.4-1.1-2.8-1.7-4.2-1.8c-12.1-0.7-24.1-1.3-36.2-2
						c-5.8-0.4-11.5-0.9-17.3-1.5c-4.5-0.5-6.9-2.7-6.2-7.6c0.2-1.5-0.5-3.1-0.7-4.7c-3.9,11.7-3.9,11.7,8,14.8
						C375.7,87.6,370.5,91.4,365.4,95.3z M308.5,252.3c-0.7,0.1-1.4,0.1-2.1,0.2c0.5,3.9,1.3,7.8,1.5,11.7
						c0.3,5.5,0.6,11.1-0.1,16.5c-1.5,11.7,6.2,17.5,14,23.3c3.4,2.5,6.5,5.4,11.3,6c4.3,0.6,8.1,4.1,12.4,5
						c5.3,1.1,9.5,2.3,8.9,8.9c0,0.6,0.7,1.2,1.1,1.8c1-3.7,1.1-7.4,0.9-11c0-0.4-1.6-1-2.5-1.1c-10.8-1.8-20.9-5.5-29.8-12
						c-6.3-4.6-12.2-9.8-13.1-18.2c-0.7-7.1-0.6-14.2-1.1-21.3C309.8,258.8,309,255.6,308.5,252.3z M438.8,501.4
						c0.6-0.1,1.2-0.2,1.8-0.3c-0.9-6.4-1.9-12.7-2.6-19.1c-0.7-6.6-2.8-13.7-1.2-19.7c1.7-6.5-4.4-10.9-1.6-17.9
						c2.1-5.1-1.2-12.6-2.3-18.9c-1.1-6.1-2.5-12.1-3.8-18.1c-0.4,0-0.8,0.1-1.3,0.1C430.3,438.9,434.7,470.2,438.8,501.4z
						 M769.6,442.5c3.1-3.9,3.1-7.3,0.1-10.7c-2.4-2.7-4.3-5.8-6.9-8.2c-5.2-5-10.2-10.5-16.2-14.3c-7.8-5-14.4-11-20.3-18.2
						c-3.5-4.4-7.4-8.9-14.1-9.4c0.4,0.8,0.5,1.3,0.8,1.6c14.1,12.7,28.4,25,42.1,38.2C761.1,427.2,769.5,432,769.6,442.5z
						 M289.2,574.3c3.2-5.5,2-8.3-3.2-7.9c-8.8,0.7-17.7,1.8-26.4,3.2c-8.9,1.5-17.7,3.5-26.4,5.6c-3.1,0.7-6.1,2.2-10.3,3.8
						c6.9,2.9,11.1-1.7,16.5-1.6c11.7,0.1,22.5-8.1,34.9-5.5c0.7,0.1,1.5-0.5,2.3-0.8C281.3,569.7,286.1,568.3,289.2,574.3z
						 M444.7,438.5c-3.2-28.2-6.4-56.1-9.5-84c-0.2,14.2-1.7,28.7,1.4,42.1c3.3,14.1,2.5,28.3,4.7,42.5
						C442.8,438.8,443.8,438.6,444.7,438.5z M358,98.4c-0.2-0.5-0.4-1.1-0.7-1.6c-2,0.4-4.2,0.4-6.1,1.3c-6.7,2.9-13.2,6.2-20,9
						c-7.8,3.3-15.9,6-19.3,15c-0.2,0.5-1,0.7-1.4,1c-4.1,2.9-5.3,8.7-2.3,13.1c0.8-2.1,1.3-4,2.2-5.7c1.6-3,3.3-6.1,5.4-8.7
						c9.2-11.3,22-16,35.4-19.9C353.7,101.2,355.8,99.6,358,98.4z M413.6,173.6c2.7,5.6,8.6,7.7,14.3,5.5c8.4-3.3,9.5-10.8,7.2-18.3
						c-1.5-4.7-9.5-9-13.6-7.7c-6.6,2.1-10.6,7.6-9.5,11.7c1.8-1.6,4.2-3.3,6.1-5.4c2.7-3.1,5.5-4.2,9.4-2.4c3.3,1.5,7.4,8.1,6.5,11
						c-1.5,5.3-7.8,9.1-13.1,7.9C418.4,175.3,416.1,174.4,413.6,173.6z M451.9,493.3c-0.4,0.1-0.9,0.1-1.3,0.2
						c2.6,25,5.3,49.9,7.9,74.9c0.5-0.1,0.9-0.1,1.4-0.2C457.7,543.2,456.4,518.1,451.9,493.3z M329.9,170.2
						c0.6,0.2,1.2,0.4,1.8,0.6c0.5-1.6,0.5-3.6,1.5-4.6c1.2-1.3,4.5-2.8,4.7-2.5c2,2.6,5.5,4,5.5,8.5c0.1,4-1.9,6-4.3,8.1
						c-1,0.9-2.7,1.7-3.8,1.5c-0.9-0.2-1.6-1.9-2.2-3c-0.6-1.1-1.1-2.4-1.6-3.6c-0.4,0.1-0.9,0.2-1.3,0.4c0.6,2.2,0.7,4.7,1.9,6.5
						c1.2,1.9,3.4,4.3,5.3,4.4c1.8,0.1,4.3-2.2,5.4-4.1c3.8-6.6,3.2-13.5-0.3-20.1c-1.9-3.5-7.2-3.9-9.3-0.5
						C331.5,164.2,330.9,167.3,329.9,170.2z M804,569.2c-3.4,5.7-2,13.7-8.3,17.7c-5.6,3.5-11.6,6.4-17.8,9.8
						c4.7,2.7,8.7-0.2,12.6-1.6C803,590.7,805.7,581.1,804,569.2z M657.8,753c-6.4-8.2-22.9-16.5-26.8-14.7
						C639.9,743.2,648.9,748.1,657.8,753z M307.3,249.5c0.4,0,0.7,0,1.1,0c0-9.4,0-18.7,0-28.1c-0.4,0-0.7,0-1.1,0
						C307.3,230.8,307.3,240.2,307.3,249.5z M444.2,449c-0.7,6.2,0,11.7,2.8,18C449.3,461.6,447.7,452.3,444.2,449z M440.4,519.7
						c1.3,6.5,2.4,11.9,3.5,17.3c0.6-0.1,1.2-0.2,1.7-0.4C444,531.3,448.7,524.8,440.4,519.7z M304.4,205.7c1,5.1,1.9,9.6,3,14.7
						C310.1,215.2,308.8,207.8,304.4,205.7z M286.2,611.6c0.6,0,1.1,0.1,1.7,0.1c3-3.6,3-7.9-0.7-11.2
						C286.8,604.6,286.5,608.1,286.2,611.6z M449.6,472.6c-0.7,0-1.3,0.1-2,0.1c0.7,5,1.4,10,2,15c0.8-0.1,1.5-0.2,2.3-0.3
						C451.2,482.5,450.4,477.6,449.6,472.6z M304.9,742c-0.6,0.1-1.1,0.3-1.7,0.4c-0.5,4-0.2,7.8,4.9,9.8
						C307,748.8,305.9,745.4,304.9,742z M287.1,783.8c0,0.7-0.1,1.4-0.1,2.1c3.9,0.3,7.7,0.5,11.6,0.8c0.1-0.6,0.1-1.3,0.2-1.9
						C294.9,784.5,291,784.2,287.1,783.8z"/>
					<path class="st3" d="M750.4,472.8c-4.3,6.9-8.4,14-12.9,20.8c-2.4,3.6-3.6,6.8-2.7,11.6c2.2,11.7,4.7,23.5,1.5,35.7
						c-1.7,6.4-1.7,13.4-2.2,20.1c-0.8,9.7,4,16.6,11.9,21.8c7.8,5.2,16,9.4,25.3,11.4c1.2,0.3,2,1.8,3.1,2.7
						c-0.4,0.5-0.7,1-1.1,1.5c-5-1.4-10.4-2-14.8-4.5c-7.8-4.2-15.8-8.6-22.1-14.7c-5.6-5.3-7.4-13.5-6-21.5c0.6-3.6,2.5-7,3.6-10.6
						c0.3-1,0-2.3-0.1-3.4c-0.2-1.8-1.2-3.8-0.7-5.3c3.2-8.4,2.8-16.9,0.9-25.4c-0.5-2.1-1.6-4-2.1-6.1c-0.9-3.8-1.6-7.6-2.4-11.5
						c-1.5,1.2-3.8,2.7-5.9,4.5c-5.1,4.4-9.9,9.3-15.4,13.1c-6.7,4.7-20.8,7.4-25-3.2c-2.7-6.7-9.2-8.7-12.2-14.5
						c-2.9-5.8-7.2-11.4-12.1-15.4c-4.6-3.8-10.9-5.8-16.6-8c-7.6-2.9-15.6-3.9-23.9-2.6c2.5,1.2,4.9,2.2,6.9,3.6
						c0.9,0.6,1.5,2.4,1.5,3.6c-0.1,4.6-1.1,9.2-0.8,13.7c0.7,10.2,1.5,20.4,3.2,30.4c0.6,3.5,2.9,6.7-0.7,10.6
						c-0.9-4.6-2.2-8.8-2.5-13c-0.9-11.7-1.6-23.4-1.9-35.2c-0.3-11.2-2.7-13.5-14-11.4c-12.9,2.4-25.8,5.6-38.8,7
						c-9.1,1-18.6,0.3-27.8-0.5c-10.2-0.8-20.3-2.1-30.3-4c-21.1-4-37.4-14.8-46-35.1c-5.1-12-4.1-24.5,0.1-36.7
						c3.7-10.7,8.4-21.2,17.6-28.3c6.3-4.8,13.2-9.3,20.6-12.3c10-4,20.6-6.3,31-9.4c0.2,0.4,0.3,0.8,0.5,1.2
						c-3.7,1.7-7.4,3.2-11,5.1c-17.4,9.2-31.9,21.1-38.9,40.4c-3.6,10.1-3.7,20.3-2,30.6c1,6.1,2,12.5,4.5,18
						c4.7,10.4,14.3,15,24.6,17.9c14.1,3.9,28.4,5.4,43.1,5.8c17.2,0.5,33.8-1.2,50.5-5.4c14.1-3.5,27.8-1,41.5,3.8
						c11.6,4.1,17.8,13.2,24.8,22c4.8,6.1,9.6,12.3,14.9,18c5,5.4,12.1,4.6,18.8-1.4c12.3-11.1,24.5-22.2,36.7-33.3
						c1.5-1.4,3.3-2.4,5-3.6C749.7,472.1,750,472.4,750.4,472.8z M504.5,369.2c-12.8,1.1-19.8,9.4-25.9,18.1
						c-4.2,6-6.6,13.4-9.3,20.3c-1.5,3.9-3.1,8.1-3.1,12.2c0,4.7,2.5,9.4,2.6,14.1c0.2,6.8,4.7,11.2,7.7,16.5
						c4.4,7.8,14.6,7,19.9,13.5c-0.9-1.7-2.5-2.7-3.5-4c-2.5-3.4-5.5-6.7-6.7-10.5c-1.8-5.6-2.7-11.7-3.2-17.6
						c-1.2-14.8-3.9-29.9,6.1-43.1c0.7-0.9,1.3-2,1.5-3c1.1-4.7,3.5-7.9,8-10.2C501.1,374.3,502.6,371.4,504.5,369.2z M550.6,474.7
						c0,0.6,0,1.1,0,1.7c5.4,0,10.9,0,16.3,0c0-0.1,0-0.2,0.1-0.3C561.5,475.7,556.1,475.2,550.6,474.7z"/>
					<path class="st3" d="M243.7,867.7c3.4,5.7,6.8,11.4,10.2,17c12,19.6,24.5,38.9,35.7,58.9c5.3,9.5,14.2,11.4,22.8,14.8
						c8.8,3.5,17.6,7.1,26.5,10.5c10.7,4.1,21.4,8.5,32.4,11.7c3,0.9,7.7-1.5,10.7-3.6c10.7-7.5,20.9-15.7,31.5-23.5
						c9.6-7,19.4-13.6,29.1-20.5c11.2-7.9,22.6-15.7,33.7-23.8c15.8-11.6,31.5-23.4,47-35.3c9-6.9,17.5-14.4,26.5-21.3
						c3.6-2.8,7.7-4.9,11.7-7c1.4-0.7,3.4-0.1,6-0.1c-8.9,16.1-26.1,21.5-36.8,35.3c5.3,2.3,9.8,4.5,14.5,6.1
						c18.4,6.2,36.9,12.1,55.4,18.2c1.3,0.4,2.4,1.2,3.6,1.6c4.6,1.7,7.7,0.8,9.8-3.7c5.1-11.2,9.9-22.4,14.7-33.7
						c6-14.2,11.9-28.5,17.9-42.7c6.2-14.7,12.3-29.3,18.5-43.9c1.6-3.8,3.3-7.5,5.1-11.1c2.9-5.9,1.9-9.5-3.8-13.1
						c-1.4-0.9-2.9-1.8-4.4-2.7c0.3-0.4,0.5-0.9,0.8-1.3c3.9,2.1,8.9,3.4,11.5,6.6c1.7,2.1,0.8,7.2-0.4,10.5
						c-3.7,10.2-8.1,20.2-12.3,30.3c-6.8,16.2-13.8,32.3-20.7,48.5c-6.5,15.3-13.1,30.7-19.6,46c-1.2,2.8-2.3,5.7-3.7,8.5
						c-3,6-7.4,7.7-13.9,5.7c-11.9-3.8-23.9-7.5-35.8-11.4c-9.7-3.2-19.4-6.5-29-10c-5.7-2.1-11.8-4.4-9.5-14.1
						c-6.3,4.4-11.2,7.9-16.2,11.5c-5.5,3.9-11,7.7-16.4,11.7c-3.5,2.6-6.6,5.6-10.2,8.1c-3.4,2.3-7.3,3.8-10.7,6
						c-2.8,1.8-5.1,4.3-7.8,6.4c-4.9,3.8-9.8,7.6-14.8,11.3c-5.1,3.8-10.2,7.6-15.4,11.1c-8,5.3-16.2,10.1-24.1,15.6
						c-5.5,3.8-10.5,8.5-15.9,12.5c-4.7,3.5-9.6,6.8-14.4,10.2c-3.7,2.5-7,6.2-12.2,4.9c-3.1-0.8-6.2-1.7-9.2-2.7
						c-4.6-1.6-9.2-3.5-13.7-5.2c-7.8-2.9-15.5-5.8-23.3-8.7c-3.7-1.4-7.4-2.9-11.1-4.2c-4.1-1.4-8.3-2.7-12.5-4.1
						c-7.1-2.4-11.8-6.8-14.6-14c-2-5-6-9.2-8.7-14c-2.9-5-5.3-10.3-8-15.5c-0.6-1.1-1.2-2.3-2.2-3.1c-5.6-4.8-7.6-11.9-11.5-17.7
						c-3.5-5.3-4.6-12-10.2-16.3c-2.5-1.9-3.1-6.4-4.5-9.7C242.4,868.3,243,868,243.7,867.7z"/>
					<path class="st3" d="M636.8,636.9c0.1,4.5-3.9,4.4-6.4,4.9c-13.4,2.6-26.9,4.9-40.4,7c-2.8,0.4-5.8-0.8-8.8-0.8
						c-5.4,0.1-10.9,0.7-16.3,0.9c-1.4,0-2.8-1-4.2-1.5c-0.7-0.2-1.6-0.6-2.2-0.4c-3.9,1.4-7.7,2.9-11.5,5.4c8-0.4,16-0.9,23.9-1.3
						c0.2,0,0.3-0.1,0.5,0c8,2.2,15.7-2.2,23.6-1c3.4,0.5,6.7,1.4,10.1,1.9c1.6,0.2,4.2,0.7,4.8-0.1c4-5,6.7,0.9,10,1.1
						c0.7,0,1.5,3,1.7,4.7c0.5,3.7-0.4,8.3,1.4,11.1c2.9,4.5,1.5,8.5,0.7,12.5c-1.2,5.8-3.1,11.6-5.7,16.9c-1.6,3.4-5.2,5.5-9.6,4.9
						c-1.4-0.2-2.9,0.1-5.3,0.2c1.4,1.7,2.3,2.8,3.2,3.8c0.4,0.4,1.5,0.6,1.6,1c1,5.2,8.1,7.4,6.2,14.4c-0.8,2.9,1.6,6.6,2.4,10
						c0.6,2.5,1.1,5.1,1.7,7.8c3.1,0.8,4.3-7.5,8.5-2.9c-3.6,4.8-7,9.4-11.4,15.3c-0.3-7.1-0.2-13-1-18.8
						c-2.7-20.8-14.9-34.4-33.5-43c-10-4.7-20.8-6-31.5-7.7c-3.4-0.5-6.7-0.9-11.2-1.5c1.7-0.8,2.4-1.3,3.2-1.5
						c14.8-2.1,29.3-2.4,42.6,5.8c5.7,3.5,11.1,7.4,16.7,11c6,3.9,11.2,2.8,15.2-3.1c2.2-3.2,3.5-7.6,3.8-11.5
						c0.6-7.5,0.2-15.1,0.2-22.7c0-4.1-1.8-5.9-6.1-5.7c-20.9,0.8-41.8,2.1-62.7,1.7c-12.6-0.2-25.1-3.1-37.6-4.8
						c-0.4-0.1-0.7-0.6-1.4-1.3c0.9-0.6,1.6-1.3,2.4-1.4c10.2-0.7,20.5-1.3,30.7-2c19-1.2,38-2.2,57-3.6c8.2-0.6,16.4-1.6,24.5-2.9
						c3.2-0.5,6.2-2.2,9.3-3.4C636.3,636.5,636.6,636.7,636.8,636.9z"/>
					<path class="st3" d="M369.4,830.8c1.2-1.4,2.3-2.9,3.5-4.2c5.5-5.8,11.9-10.4,19.4-13.5c2.8-1.2,5-3.8,7.5-5.7
						c5-3.7,10-7.5,15.3-10.9c6.3-4.1,12.9-7.8,19.3-11.8c0.4-0.2,0.3-1.1,0.5-1.7c0.4-0.4,0.8-0.8,1.2-1.2c4.8,1.1,7.8-1.7,11-4.7
						c2.9-2.7,6.7-4.3,9.9-6.8c4.2-3.3,8.1-6.9,12-10.6c0.6-0.6,0.4-2.3,0.1-3.4c-0.9-3.8-2-7.6-2.9-10.9c-0.1,0.2-0.7,1.1-1,2.1
						c-2.8,8-5.2,10.4-13.2,8c-11.1-3.4-22.5-3.8-33.7-5.8c-6.5-1.2-13.1-2.4-19.4-4.6c-9-3.1-10.7-8.2-7-17
						c0.9-2.2,1.5-4.5,2.3-6.7c-0.6-0.2-1.1-0.4-1.7-0.7c-2.5,5.9-5.1,11.7-7.4,17.7c-1.2,3.2-2,6.5-2.7,9.8
						c-0.2,0.8,0.9,2.2,1.7,2.6c1.7,0.8,3.7,1.1,5.5,1.6c-0.1,0.4-0.1,0.9-0.2,1.3c-2.1-0.4-4.7-0.2-6-1.4c-1.7-1.6-3.6-4.6-3.2-6.5
						c1.5-7.5,3.5-15,6.2-22.2c1.6-4.1,4.8-7.7,7.5-11.3c0.8-1.1,3.3-2.2,3.9-1.7c1.4,1,3,3.1,2.8,4.5c-0.6,4.2-1.9,8.2-3.2,12.3
						c-0.9,2.8-2.5,5.4-3.3,8.2c-1,3.7,1.5,4.9,4.6,5.5c16.8,3.2,33.5,6.4,50.3,9.5c3.2,0.6,7.2,2.2,9.4,0.8c2-1.3,1.7-5.9,3.1-8.7
						c1.2-2.4,3-4.6,5.1-6.3c3.3-2.9,7-5.4,10.9-7.7c-4.3,10-7.6,19.8-6.9,30.8c0.1,2.3-1.5,5.6-3.4,6.9
						c-15.7,10.7-31.7,20.9-47.4,31.4c-15,10-29.8,20.2-44.8,30.2c-1.7,1.2-3.8,1.8-5.8,2.6C369.3,830.7,369.4,830.8,369.4,830.8z"
						/>
					<path class="st3" d="M189.1,501.4c2.1,0,4.2,0,7,0c-4.8-4.5-8.9-8.3-12.9-12c3.6-5.8,8-7.1,13.3-7.5c3.8-0.3,7.5-1.9,11.3-2.9
						c9-2.4,18.1-4.3,26.9-7.3c5.4-1.8,11.4-2.4,16-6.5c6.2-5.6,13.1-10.5,19.4-16c2.4-2.1,3.7-5.3,5.9-7.7c1.8-2,4-3.6,6.3-5
						c0.7-0.4,2.7-0.1,2.9,0.4c2.1,4.3,9.2,6.1,5.6,13.2c0.6,0,1.1,0,1.7,0c0.8-3.1,2.3-6.2,2.4-9.3c0.2-19.7,0.1-39.3,0.2-59
						c0-4.1-0.4-8.5,1-12.2c1.3-3.5,4.7-6.1,7-9.3c4.4-6,9.8-10.8,17.3-12.3c5.7-1.2,11.5-2,17.3-2.9c1-0.2,2.1,0.1,3.1,0.2
						c0.1,0.5,0.2,1,0.3,1.5c-4.8,1.1-9.6,2.6-14.5,3.2c-9.1,1.3-16.4,5.7-22.2,12.5c-5.7,6.7-7.8,14.6-7.5,23.5
						c0.4,13.1,0.4,26.3,0,39.5c-0.5,18.7-1.4,37.3-2.2,56c-0.7,0.1-1.3,0.1-2,0.2c-0.5-2.7-1.3-5.4-1.6-8.1c-1-9-1.7-18.1-3-27
						c-0.3-2.3-2.5-4.4-3.8-6.6c-2,1.2-4.3,2.1-5.9,3.7c-8.1,8.8-15.7,18.5-26.9,23.5c-10.9,4.9-22.2,8.8-33.5,12.6
						c-8.4,2.8-17.1,4.5-25.7,6.9c-1.5,0.4-2.9,1.4-5,2.5c17.2,10.9,34.4,21.1,37.6,44.6c-4.7-6.3-8.6-11.8-12.7-17.1
						c-5.7-7.3-12.1-13.6-22-14.7c-0.4,0-0.7-0.7-1.1-1C189.3,501.2,189.1,501.4,189.1,501.4z"/>
					<path class="st3" d="M156.3,485.9c-10.8-3.5-22.1-4.4-33.3-3.9c-15.8,0.7-31.2,3.1-44.7,12c-4,2.6-7.6,5.8-11.2,8.9
						c-4.4,3.8-6.1,9-6,14.5c0.3,10.9,0.8,21.8,2,32.6c0.5,4.1,3.1,8,4.8,11.9c0.6,0,1.2,0,1.7,0c1.4-1.9,3.5-3.6,4-5.7
						c1.4-5.9,2.6-11.8,3.1-17.8c0.8-9.1,5.8-15.2,14.7-17.3c10.5-2.6,21.1-5.1,31.5-8.3c3.9-1.2,7.3-4.1,11.1-5.9
						c2.1-1,4.5-1.5,6.6-2.2c3.7,6.9-2.4,14.5-8.9,16.6c-7.5,2.4-15.2,4.8-22,8.6c-9.1,5.1-15.4,13.2-19,23.2
						c-1,2.7-2.4,5.2-4.1,7.5c-0.8-4.6-1.7-9.1,3.1-12.1c0.7-0.5,1.3-1.5,1.6-2.4c3.3-9.9,10.8-16.5,19.1-21.7
						c5.1-3.2,11.5-4.3,17.3-6.4c3.3-1.3,6.6-2.7,9.7-4.4c1-0.5,1.3-2.3,1.9-3.5c-1.2,0.2-2.7,0-3.6,0.6c-8.3,5.8-18,8-27.6,10.2
						c-7.1,1.6-14.1,3.8-21,6c-1.6,0.5-3.2,2.2-4,3.8c-4.6,8.5-6.1,17.7-7.3,27.2c-0.3,2.4-2.7,6.1-4.6,6.4
						c-2.4,0.4-6.5-1.2-7.8-3.3c-2.3-3.6-3.9-8.1-4.2-12.3c-0.6-8.1,0-16.4-0.2-24.5c-0.1-2.4-1.8-4.8-1.6-7.1
						c0.3-3.8,1.5-7.5,2.6-11.1c0.4-1.3,1.3-2.5,2.3-3.4c5-4.3,9.8-9,15.4-12.6c5.3-3.4,11.2-5.9,17.2-7.8c4.1-1.3,8.8-0.7,13.2-1.3
						c3.5-0.5,7.7,2.3,10.3-2.4c0.3-0.5,1.8-0.6,2.7-0.5c3.2,0.5,6.3,1.5,9.5,1.9c7.1,0.9,14.3,1.5,21.4,2.6c1.6,0.3,5.8-3.2,5,2.4
						C156.8,485.4,156.5,485.6,156.3,485.9z"/>
					<path class="st3" d="M368.4,694.8c-2.6,0.4-5.2,1.2-7.9,1.3c-12.6,0.4-25.2,0.8-37.8,0.9c-4.7,0.1-7.1,3.3-8.5,6.5
						c-3.2,7.6-5.4,15.7-8.1,23.5c-0.5,1.3-1.1,2.6-1.8,4c-5.2-4.3-0.7-8.4,0.1-11.9c1.4-6,5.5-11.2,7.3-17.1c1.8-6,6.7-5.9,11-7
						c3.1-0.8,6.4-0.6,9.6-1.7c-5.8-1.8-11.7-3.5-17.5-5.4c-8.7-2.8-15-8.5-16.7-17.6c-0.9-5,0.4-10.5,0.9-15.7
						c0.1-1.6,0.8-3.1,1.3-4.7c-5.6-3.4-15.2-2.2-14-13.2c1.2,0.5,2.4,0.7,2.7,1.3c2.6,6.6,8.7,6.6,14.2,7.1
						c5.1,0.4,10.3-0.1,15.5,0.1c19,0.9,38.1,1.8,57.1,2.8c1.3,0.1,2.5,0.7,3.8,2c-1.6,0.3-3.1,0.8-4.7,0.9
						c-17.8,0.4-35.6,0.6-53.3,1c-5.1,0.1-10.2,0.5-15.3,1c-5.6,0.6-7.8,4.4-6.1,11.7c2.3,10.1,7.7,18,18.6,20.2
						c12.4,2.5,24.9,4.3,37.4,6.5c4.1,0.7,8.2,1.6,12.3,2.3C368.4,694.1,368.4,694.4,368.4,694.8z M328.5,649.7
						c-7.2,0-13.8,0-20.4,0c0,0.5,0.1,1,0.1,1.5C314.7,650.7,321.1,650.2,328.5,649.7z"/>
					<path class="st3" d="M348.3,270.2c-0.8-0.8-1.7-1.7-2.5-2.5c1.5-4.1-3.1-5.5-3.9-8.6c-0.8-2.9-2.4-5.6-3.6-8.3
						c0.5-0.3,0.9-0.6,1.4-0.9c1.4,1.2,3,2.3,4.3,3.7c4.8,5.3,10.7,9.2,17,12.4c0.3,0.1,0.7,0,1,0c5.2-0.4,10.4-0.7,15.5-1.2
						c1.4-0.1,2.6-1.3,4-1.6c3.9-0.8,7.8-1.3,11.6-2.2c1.9-0.4,3.7-2,5.6-1.9c7.7,0.1,11.3-5.4,15.4-10.4c1.6-2,3.2-3.9,4.8-5.9
						c1.1,8.5-7.5,21.7-14.4,25.6c-7.4,4.1-13.6,10.2-22.5,11.5c-6.1,0.9-11.5-0.2-17.2-2.8C359.5,274.5,355.1,269.4,348.3,270.2z"
						/>
					<path class="st3" d="M356.4,344.9c-0.1-3.3,1.5-4.2,4.6-4c3.6,0.3,7.3,0.1,10.9-0.9c-3.3,0-6.6-0.4-9.8,0.1
						c-4.8,0.7-6.5-2.5-8.4-5.8c-1.9-3.2,0.4-3.4,2.9-4.2c0.3,2,0.5,3.6,0.9,6.2c8.7-0.5,17.6-1,26.4-1.6c4.9-0.4,9.8-1.4,14.8-1.5
						c25.1-0.7,50.1-1.5,75.2-1.8c7.2-0.1,14.5,1.7,21.8,2.6c0,0.8,0,1.6,0,2.3c-5.1,0.9-10.2,2.2-15.4,2.5
						c-12,0.9-24.1,1.4-36.2,1.9c-4.2,0.2-6.9,1.6-7.2,6.2c-0.1,1.3-1.2,2.5-2.2,3.6c0.2-4.1-2.2-8.9,2.5-11.7c2.2-1.3,5-2,7.7-2.3
						c6-0.8,12.5-2.6,18-1.2c5.2,1.3,10.1,1.3,15.2,1.5c1.3,0,2.6-1.2,3.9-1.8c-0.1-0.5-0.3-1-0.4-1.5c-10.8-0.3-21.6-0.8-32.4-0.8
						c-2.3,0-4.6,1.8-6.9,2c-3.1,0.3-6.3-0.2-9.4-0.4c-1.6-0.1-4-1.1-4.7-0.4c-2.9,3.2-5.8,0.9-8.8,1c-7,0.2-13.9-1.2-21.1,1.6
						c-6.3,2.5-13.9,1.9-22,2.8c10.6,2.2,20.1,2.4,29.9,0.9c4.4-0.7,9.1,0.4,13.7,0.9c0.8,0.1,2,1.3,2.2,2.2c1,4,1.7,8,2.5,12
						c-0.6,0.1-1.3,0.3-1.9,0.4c-0.5-2.9-0.7-5.8-1.7-8.5c-0.6-1.7-2.2-4.1-3.6-4.2c-4.3-0.6-8.8-0.3-13.2-0.2
						c-15.9,0.6-31.8,1.3-47.7,1.9C356.3,344.8,356.4,344.9,356.4,344.9z"/>
					<path class="st3" d="M521,99c3.5-4,7.8-1.9,10.3-0.5c7.4,4,14.7,8.4,21.1,13.8c5.5,4.6,10.6,10.1,13.2,17
						c1.2,3.2,1.1,7,1.3,10.6c0.4,5.6,0.9,11.2,1,16.8c0.4,42.3,0.6,84.5,1.1,126.8c0.1,7.7-3,12.8-10.1,15.5
						c-3.3,1.3-6.3,4-10.5,1.9c-1.1-0.5-3.2,1.3-4.9,1.7c-3.2,0.7-6.9,2.3-9.5,1.2c-6.2-2.6-10.2,1.3-15.9,3.4
						c6.8,2.6,13.7-0.8,19.4,2.9c-13.4-2.1-28.1,3.4-41.9-6.5c2.9-0.7,4.3-1.3,5.8-1.4c15.7-1,31.5-1.4,47.1-3
						c10.7-1.1,16.9-4.7,17.1-17.7c0.5-29.9,0.8-59.9,0.9-89.8c0.1-13.8,0-27.6-1.1-41.3c-0.6-8.2-1.9-16.9-5.3-24.3
						c-4.4-9.5-12.6-16.5-22.4-20.8C532.6,102.9,527,101.2,521,99z"/>
					<path class="st3" d="M436,781.9c-0.4,0.4-0.8,0.8-1.2,1.2c-6.5,3.4-13,6.6-19.4,10.2c-6.1,3.4-12,7.2-18.1,10.6
						c-5.8,3.2-11.7,6.2-17.7,8.8c-7.3,3.2-16.1-2-19.9-8.8c-3.7-6.6-6.8-14.6-16.2-16.2c-7.2-1.3-14.1-3.7-21.2-5.7
						c-4.5-1.3-7.7-4.2-9.6-8.6c-1.9-4.4-4.2-8.6-5.9-13c-0.5-1.4,0.1-3.3,1.4-4.9c1.8,4.6,3.9,9.2,5.5,13.9c1.6,4.8,5.5,7,9.6,8.4
						c6.1,2,12.3,4,18.6,4.8c10.6,1.3,15.4,8.6,19.9,16.6c1.8,3.1,3.7,6.2,5.8,9.1c2.6,3.5,7.5,3.9,13.5,0.3
						c21.8-12.9,43.5-26,65.2-39.1c1.5-0.9,2.6-2.3,5.1-4.7c-12.1-2.1-22.7-4-33.3-5.9c2.3-1.9,3.8-2.8,7.1-1.2
						c4.2,2.1,9.7,1.8,14.7,1.8c2.3,0,4.4-1.2,5.8,1.7c0.3,0.6,1.8,0.6,2.6,1c1.9,1,5.4,2.3,5.3,3.1c-0.3,2.3-1.5,5.1-3.3,6.6
						C445.8,775.5,440.8,778.6,436,781.9z"/>
					<path class="st3" d="M348.3,270.2c6.7-0.8,11.1,4.3,16.5,6.8c5.7,2.7,11.1,3.8,17.2,2.8c8.9-1.3,15.1-7.4,22.5-11.5
						c6.8-3.8,15.5-17,14.4-25.6c-1.6,2-3.2,3.9-4.8,5.9c-4.1,5-7.7,10.5-15.4,10.4c-1.8,0-3.6,1.5-5.6,1.9
						c-3.9,0.9-7.8,1.4-11.6,2.2c-1.4,0.3-2.7,1.4-4,1.6c-5.2,0.6-10.4,0.9-15.5,1.2c-0.3,0-0.7,0.1-1,0c-6.3-3.3-12.2-7.1-17-12.4
						c-1.3-1.4-2.9-2.5-4.3-3.7c-0.5,0.3-0.9,0.6-1.4,0.9c1.2,2.8,2.9,5.4,3.6,8.3c0.8,3.2,5.5,4.5,3.9,8.6
						c-7.8-3.6-11.1-16.4-7.3-24.1c5,4.8,9.8,10,15.2,14.4c7.2,5.8,15.6,5.9,24.2,3.8c5.4-1.3,10.8-2.6,16.2-3.9
						c10.7-2.5,16.9-10.4,22.6-18.8c1.6-2.3,3.1-4.6,5-7.4c3.8,6.7,3.9,13.3,1.1,19.3c-6.1,13.1-16.4,22.5-29.7,27.7
						c-15.1,5.9-29.7,3.7-43-5.6C349.2,272.4,348.9,271.1,348.3,270.2z"/>
					<path class="st3" d="M87.1,568c2.5,4.3,4.8,8.8,7.6,12.9c7.8,11.7,16.7,22.6,29.8,28.5c5.2,2.3,11.5,2.9,17.4,3
						c13.6,0.4,26.8-1.6,38.7-9.1c8.6-5.4,14.4-12.9,17.6-22.6c1.3-3.9,2.9-7.7,4.9-11.2c2.6-4.8,6.6-5.3,10.3-1.6
						c2.7,2.7,5.2,5.6,7.6,8.6c0.5,0.6,0,2,0,3c-1-0.1-2.4,0.2-3.1-0.4c-2.2-1.9-4.5-3.8-6.2-6.2c-2.7-4-4.3-2.8-5.9,0.7
						c-2.3,5.2-4.5,10.4-6.8,15.6c-4.1,9.2-10.6,15.8-20.5,18.8c-3.6,1.1-7.3,1.9-10.6,3.6c-10.4,5.6-21.7,4.4-32.8,4.3
						c-11-0.1-19.9-4.4-26.5-13.6c-4.2-5.8-9.7-10.7-14.3-16.3c-3.3-4.1-6.1-8.7-8.8-13.2c-0.7-1.1-0.1-2.9-0.1-4.4
						C86,568.3,86.5,568.2,87.1,568z"/>
					<path class="st3" d="M791.5,539.1c11,5.4,16.7,14.6,12.5,21.5c-1.1-2.6-2.3-4.7-2.9-7c-2.2-7.8-11.1-12.2-18.3-8.6
						c-4.5,2.3-8.7,5.3-13.1,7.9c-3.3,2-7.4,5.4-10.4,1.4c-1-1.3,2-7.7,4.7-9.6c13.3-9.3,28.2-13.2,43.3-5.8
						c12.6,6.1,24.1,14.3,36.1,21.6c0.5,0.3,0.9,0.9,1.4,1.4c-3.7,1.2-5.7,0.6-9.5-2.3c-11.7-8.7-24.2-15.9-38.2-20.2
						c-0.8-0.2-1.6-0.5-2.4-0.5C793.7,539,792.8,539.1,791.5,539.1z M763.8,549.5c0.5,0.6,0.9,1.2,1.4,1.8c3.6-2.5,7.1-5,10.7-7.4
						c-0.3-0.4-0.5-0.8-0.8-1.2C771.3,545,767.5,547.2,763.8,549.5z"/>
					<path class="st3" d="M259,818.4c-7-1.6-14-3.2-21-5c-5.4-1.3-10.7-3.2-16.2-4.3c-6.1-1.2-9.5,2.8-6.9,8.5
						c3.6,7.9,8.1,15.3,12.4,22.8c4,6.9,8.2,13.7,12.3,20.6c-0.3,0.4-0.7,0.8-1,1.2c-2.2-1.9-4.9-3.4-6.5-5.7
						c-3.3-5-6.2-10.4-9-15.7c-1.5-2.8-2.2-6-3.7-8.7c-1.3-2.3-4.2-3.8-5-6.2c-1.7-4.5-2.8-9.3-3.3-14c-0.2-1.5,2.3-4.3,3.9-4.6
						c4.3-0.8,7.3-2.3,8.9-6.7c0.6-1.6,2.4-3.4,4-3.9c6.5-2,9.5-8.1,14.6-11.7c3.9-2.8,8-5.4,12.4-7.2c2.1-0.9,5.8-0.6,7.3,0.8
						c4.1,3.6,8.8,3.5,13.6,3.8c3,0.2,5.9,0.7,8.8,2.3c-1.1,0-2.1,0.1-3.2,0c-7.4-0.9-14.7-2.3-22.1-2.7c-3.5-0.2-7.8,0.5-10.5,2.5
						c-7.8,5.7-14.9,12.2-23.3,19.2c11.7,4.7,22.7,9.1,33.8,13.5C259.3,817.6,259.2,818,259,818.4z"/>
					<path class="st3" d="M509.2,98.3c-9.6,0.3-12-2-12.2-9.1c-0.1-5.4-0.5-10.9-0.8-16.3c-0.4-8.9-6.6-14-13.2-18.1
						c-19.9-12.2-42-15.8-64.7-13.5c-14.4,1.5-28.3,6.2-39.8,15.6c-3,2.4-4.6,6.4-6.8,9.6c-2.8-5.9,1-10.1,4.9-13
						c4.4-3.3,10-5,15.1-7.3c1.3-0.6,3.2-0.4,4.1-1.3c3.7-3.6,8.2-4.2,13-3.7c0.2,0,0.4,0.1,0.5,0c8-4.7,16.7-1,25-2
						c4.2-0.5,8.5-0.9,12.7-0.9c2,0,4,1,6,1.6c0.5,0.2,0.8,1.1,1.3,1.2c8.4,1.6,16,6.2,24,8.2c7.5,1.9,10.7,7.7,15.9,11.5
						c2,1.5,2.6,4.9,3.7,7.4c1,2.4,2,4.8,2.8,7.4c0.3,1,0.1,2.2-0.2,3.2c-0.4,1.4-1,2.8-1.5,4.3C496.4,91.1,502.6,94.2,509.2,98.3z"
						/>
					<path class="st3" d="M704,374.9c-3.6-3.2-7.2-6.4-10.9-9.5c-8.5-7.1-16.4-15.2-27.1-19c-4.7-1.7-10-2.3-15.1-2.6
						c-14.3-0.6-28.6-0.7-42.8-1.1c-3.3-0.1-6.6-0.4-9.8-1c-1.2-0.2-2.8-1.2-3.3-2.2c-3.9-8.4-10.2-12-19.6-12
						c-9.2,0.1-18.5-1.1-27.7-1.7c-2.6-0.1-5.2,0.6-7.7,0.1c-4.7-1-5.3-3.6-2.9-10.9c1.3,9.2,7.5,8.9,13.8,9.1
						c11.4,0.3,22.7,0.8,34,2c3.2,0.3,6.7,2.9,8.9,5.5c5,5.8,9.4,10.9,18.4,9.7c7.9-1,16.1-1,23.9,0c11.4,1.4,23.2-0.1,34.3,4.6
						c7.1,3,12.4,8.1,18.3,12.5c4.2,3.1,8.3,6.5,12.2,10c1.7,1.5,2.7,3.6,4.1,5.4C704.7,374.3,704.3,374.6,704,374.9z"/>
					<path class="st3" d="M457.2,647.9c-6-35.7-8.6-71.2-12.6-106.5c1,6.4,6.8,12,3.2,19.2c-0.5,1-0.3,2.9,0.4,3.8
						c3.7,5.2,4.6,10.7,2.9,16.9c-0.5,1.7,0.7,3.8,1.2,5.7c0.2,0.8,0.8,1.5,0.7,2.2c-0.3,2.5-1,4.7,0.8,7.4c1.3,1.9-0.1,5.4,0.4,8
						c1,5.9,1.6,12.2,4.1,17.5c1.3,2.7,3.6,4.8,3,8.1c-0.2,1.2-1,2.4-1.5,3.6c-0.9-0.9-1.8-1.8-2.6-2.6c0,1.7,0,3.9,0,6.3
						c1.2,0.2,2.5,0.5,3.8,0.8C461.3,641.5,464.1,645.2,457.2,647.9z"/>
					<path class="st3" d="M365.4,95.3c5.1-3.9,10.3-7.7,14.9-11.2c-12-3.1-12-3.1-8-14.8c0.3,1.6,0.9,3.2,0.7,4.7
						c-0.6,4.9,1.8,7.1,6.2,7.6c5.7,0.6,11.5,1.2,17.3,1.5c12.1,0.7,24.1,1.3,36.2,2c1.4,0.1,2.8,0.7,4.2,1.8
						c-9.2,0.4-18.4,0.7-27.6,1.1c-9.4,0.3-18.9,0.4-28.3,1.1c-2.4,0.2-4.7,2.4-7,3.8c-2.5,1.5-4.9,3-7.3,4.5
						C366.2,96.7,365.8,96,365.4,95.3z"/>
					<path class="st3" d="M831.7,453.7c1.8,0.5,3.8,0.5,5.3,1.4c6.4,3.8,13.5,6.1,16.4,14.9c1.5,4.6,3.4,8.9,4.5,13.9
						c2.1,9.2,1.4,18.5,2.8,27.7c1.6,10.9,2.2,22,2,33c-0.1,5.9-3.2,11.6-7.4,16.2c-0.4,0.4-1.7-0.2-3-0.3
						c10.8-13,7.7-27.9,6.9-42.4c-0.4-7.4-1.6-14.7-2.1-22.1c-0.7-11.7-3.7-22.8-11.3-31.8C842.1,459.8,836.5,457.1,831.7,453.7
						C831.8,453.6,831.7,453.7,831.7,453.7z"/>
					<path class="st3" d="M308.5,252.3c0.5,3.3,1.3,6.5,1.5,9.8c0.5,7.1,0.4,14.3,1.1,21.3c0.9,8.4,6.8,13.6,13.1,18.2
						c8.9,6.4,19,10.1,29.8,12c0.9,0.2,2.4,0.7,2.5,1.1c0.2,3.6,0.1,7.2-0.9,11c-0.4-0.6-1.2-1.3-1.1-1.8c0.6-6.6-3.6-7.7-8.9-8.9
						c-4.3-0.9-8.1-4.5-12.4-5c-4.9-0.6-7.9-3.5-11.3-6c-7.8-5.8-15.4-11.6-14-23.3c0.7-5.4,0.3-11,0.1-16.5
						c-0.2-3.9-1-7.8-1.5-11.7C307.1,252.5,307.8,252.4,308.5,252.3z"/>
					<path class="st3" d="M438.8,501.4c-4.1-31.3-8.5-62.5-10.8-94c0.4,0,0.8-0.1,1.3-0.1c1.3,6,2.7,12.1,3.8,18.1
						c1.1,6.4,4.4,13.8,2.3,18.9c-2.9,7,3.3,11.4,1.6,17.9c-1.6,6.1,0.5,13.1,1.2,19.7c0.7,6.4,1.7,12.7,2.6,19.1
						C440,501.2,439.4,501.3,438.8,501.4z"/>
					<path class="st3" d="M769.6,442.5c-0.1-10.5-8.4-15.3-14.5-21.2c-13.6-13.1-28-25.5-42.1-38.2c-0.3-0.3-0.4-0.8-0.8-1.6
						c6.7,0.6,10.6,5.1,14.1,9.4c5.8,7.2,12.4,13.2,20.3,18.2c6,3.9,11,9.3,16.2,14.3c2.6,2.5,4.5,5.6,6.9,8.2
						C772.7,435.2,772.6,438.6,769.6,442.5z"/>
					<path class="st3" d="M636.8,636.9c-0.2-0.2-0.5-0.4-0.7-0.6c-0.9-19.2-1.6-38.4-2.8-57.6c-0.8-13.1-2.3-26.1-2.5-39.7
						c1.1,3.3,2.7,6.6,3.1,10c1.3,9.7,2.2,19.5,3,29.4c0.2,3-1.2,6.1-1.1,9.2c0.2,6.4,1.6,12.9,1,19.2c-0.7,8.7,0.1,17.1,0.9,25.7
						C637.9,633.9,637.1,635.4,636.8,636.9z"/>
					<path class="st3" d="M289.2,574.3c-3.1-6-7.9-4.6-12.7-3.1c-0.8,0.2-1.6,0.9-2.3,0.8c-12.4-2.6-23.2,5.6-34.9,5.5
						c-5.4-0.1-9.6,4.5-16.5,1.6c4.2-1.6,7.2-3.1,10.3-3.8c8.8-2,17.5-4.1,26.4-5.6c8.8-1.5,17.6-2.5,26.4-3.2
						C291.2,566,292.4,568.9,289.2,574.3z"/>
					<path class="st3" d="M369.4,830.8c0,0-0.1-0.2-0.1-0.2c-4,2.5-5.8-0.8-7.1-3.4c-3.3-6.5-6.1-13.2-9.1-19.9
						c-2.9-6.5-5.6-13.3-13.8-14.7c-2.4-0.4-4.9-0.4-7.3-0.7c-2.3-0.3-4.6-0.9-7.8-1.6c6.3-3.7,20.1-3.1,22.7,1.3
						c4.5,7.7,12.1,13.6,13.2,23.2c0.3,2.3,2.2,4.4,3.2,6.7c1,2.2,1.6,4.6,2.7,6.6C366.7,829.4,368.3,830,369.4,830.8z"/>
					<path class="st3" d="M444.7,438.5c-0.9,0.2-1.9,0.3-3.4,0.6c-2.3-14.2-1.4-28.4-4.7-42.5c-3.2-13.4-1.6-28-1.4-42.1
						C438.3,382.4,441.5,410.3,444.7,438.5z"/>
					<path class="st3" d="M358,98.4c-2.2,1.2-4.3,2.8-6.7,3.5c-13.4,3.9-26.2,8.6-35.4,19.9c-2.1,2.6-3.7,5.7-5.4,8.7
						c-0.9,1.7-1.4,3.6-2.2,5.7c-3-4.4-1.8-10.3,2.3-13.1c0.5-0.3,1.3-0.6,1.4-1c3.3-9,11.5-11.7,19.3-15c6.7-2.8,13.3-6.1,20-9
						c1.9-0.8,4.1-0.9,6.1-1.3C357.6,97.3,357.8,97.8,358,98.4z"/>
					<path class="st3" d="M413.6,173.6c2.5,0.8,4.8,1.7,7.2,2.3c5.3,1.3,11.7-2.6,13.1-7.9c0.8-2.9-3.3-9.6-6.5-11
						c-3.9-1.8-6.7-0.7-9.4,2.4c-1.9,2.1-4.3,3.8-6.1,5.4c-1.1-4.1,2.9-9.5,9.5-11.7c4.1-1.4,12.2,3,13.6,7.7
						c2.3,7.5,1.2,15-7.2,18.3C422.2,181.3,416.2,179.2,413.6,173.6z"/>
					<path class="st3" d="M831.7,453.7C831.7,453.7,831.8,453.6,831.7,453.7c-2.3-0.7-4.7-1.2-7-1.9c-13.8-4.4-27.5-3.9-41.5-0.4
						c-3.9,1-9,2.6-12.1-2.5c-0.7-1.3-0.7-3-1.1-5c3.5,1.8,5.9,3.8,8.6,4.2c2.6,0.5,5.5-0.6,8.2-1c0.7-0.1,1.3-1,1.9-1
						c7.6,0.3,15.2,0.3,22.7,1c6.1,0.6,12.2,1.8,18.2,3.1C830.6,450.4,831.1,452.5,831.7,453.7z"/>
					<path class="st3" d="M451.9,493.3c4.5,24.8,5.8,49.9,8,74.9c-0.5,0.1-0.9,0.1-1.4,0.2c-2.6-25-5.3-49.9-7.9-74.9
						C451,493.5,451.5,493.4,451.9,493.3z"/>
					<path class="st3" d="M329.9,170.2c1-2.9,1.6-6,3.2-8.5c2.1-3.4,7.5-3,9.3,0.5c3.5,6.6,4.1,13.5,0.3,20.1
						c-1.1,1.9-3.6,4.1-5.4,4.1c-1.8-0.1-4-2.5-5.3-4.4c-1.2-1.8-1.3-4.3-1.9-6.5c0.4-0.1,0.9-0.2,1.3-0.4c0.5,1.2,1,2.4,1.6,3.6
						c0.6,1.1,1.3,2.9,2.2,3c1.2,0.2,2.8-0.6,3.8-1.5c2.4-2.1,4.4-4.1,4.3-8.1c-0.1-4.5-3.5-5.9-5.5-8.5c-0.2-0.3-3.5,1.2-4.7,2.5
						c-1,1.1-1,3.1-1.5,4.6C331.1,170.6,330.5,170.4,329.9,170.2z"/>
					<path class="st3" d="M804,569.2c1.6,11.9-1.1,21.6-13.5,25.9c-4,1.4-7.9,4.3-12.6,1.6c6.2-3.4,12.2-6.3,17.8-9.8
						C802,582.9,800.6,574.9,804,569.2z"/>
					<path class="st3" d="M156.3,485.9c0.2-0.2,0.4-0.5,0.6-0.7c1,0.1,2.4-0.2,2.9,0.3c6.3,7.8,15.4,9.3,24.3,11.7
						c1.9,0.5,3.4,2.7,5.1,4.2c0,0,0.1-0.2,0.1-0.2c-10.7,0.6-19.6-3.6-27.5-10.5C160,489.1,158.1,487.5,156.3,485.9z"/>
					<path class="st3" d="M657.8,753c-8.9-4.9-17.9-9.8-26.8-14.7C634.9,736.4,651.4,744.8,657.8,753z"/>
					<path class="st3" d="M307.3,249.5c0-9.4,0-18.7,0-28.1c0.4,0,0.7,0,1.1,0c0,9.4,0,18.7,0,28.1
						C308,249.5,307.6,249.5,307.3,249.5z"/>
					<path class="st3" d="M444.2,449c3.4,3.3,5,12.5,2.8,18C444.3,460.7,443.6,455.2,444.2,449z"/>
					<path class="st3" d="M440.4,519.7c8.3,5.1,3.6,11.6,5.3,17c-0.6,0.1-1.2,0.2-1.7,0.4C442.9,531.6,441.8,526.2,440.4,519.7z"/>
					<path class="st3" d="M304.4,205.7c4.4,2.1,5.7,9.5,3,14.7C306.3,215.3,305.5,210.8,304.4,205.7z"/>
					<path class="st3" d="M286.2,611.6c0.3-3.5,0.7-7,1-11.1c3.7,3.3,3.7,7.6,0.7,11.2C287.3,611.7,286.8,611.7,286.2,611.6z"/>
					<path class="st3" d="M449.6,472.6c0.8,5,1.6,9.9,2.4,14.9c-0.8,0.1-1.5,0.2-2.3,0.3c-0.7-5-1.4-10-2-15
						C448.3,472.7,448.9,472.7,449.6,472.6z"/>
					<path class="st3" d="M304.9,742c1.1,3.4,2.2,6.8,3.3,10.3c-5.2-2-5.4-5.8-4.9-9.8C303.7,742.3,304.3,742.1,304.9,742z"/>
					<path class="st3" d="M356.4,344.9c0,0-0.1-0.2-0.1-0.2c-3.9,0.8-7.8,1.5-11.7,2.2c-0.1-0.6-0.2-1.2-0.2-1.8
						C348.1,342.6,352.4,344.6,356.4,344.9z"/>
					<path class="st3" d="M287.1,783.8c3.9,0.3,7.8,0.7,11.6,1c-0.1,0.6-0.1,1.3-0.2,1.9c-3.9-0.3-7.7-0.5-11.6-0.8
						C287,785.3,287.1,784.5,287.1,783.8z"/>
					<path class="st3" d="M504.5,369.2c-1.9,2.2-3.5,5.1-5.9,6.3c-4.4,2.3-6.9,5.5-8,10.2c-0.2,1.1-0.9,2.1-1.5,3
						c-10,13.2-7.4,28.3-6.1,43.1c0.5,5.9,1.4,12,3.2,17.6c1.2,3.8,4.3,7.1,6.7,10.5c1,1.4,2.6,2.3,3.5,4
						c-5.4-6.5-15.5-5.7-19.9-13.5c-3-5.3-7.5-9.7-7.7-16.5c-0.1-4.7-2.6-9.4-2.6-14.1c0-4.1,1.5-8.3,3.1-12.2
						c2.8-6.9,5.1-14.3,9.3-20.3C484.7,378.6,491.8,370.3,504.5,369.2z"/>
					<path class="st3" d="M550.6,474.7c5.5,0.5,10.9,0.9,16.4,1.4c0,0.1,0,0.2-0.1,0.3c-5.4,0-10.9,0-16.3,0
						C550.6,475.8,550.6,475.3,550.6,474.7z"/>
					<path class="st3" d="M328.5,649.7c-7.5,0.5-13.9,1-20.3,1.5c0-0.5-0.1-1-0.1-1.5C314.7,649.7,321.3,649.7,328.5,649.7z"/>
					<path class="st3" d="M763.8,549.5c3.8-2.3,7.5-4.6,11.3-6.8c0.3,0.4,0.5,0.8,0.8,1.2c-3.6,2.5-7.1,5-10.7,7.4
						C764.7,550.7,764.2,550.1,763.8,549.5z"/>
				</g>
			</g>
		</g>
	</g>
</g>
</svg>
