<svg xmlns="http://www.w3.org/2000/svg" width="792" viewBox="0 0 792 612" height="612" version="1.0"><defs><clipPath id="a"><path d="M 14 207.152344 L 779.40625 207.152344 L 779.40625 411 L 14 411 Z M 14 207.152344"/></clipPath></defs><g clip-path="url(#a)"><path fill="#662D91" d="M 397.058594 207.332031 C 349.894531 207.332031 310.25 240.023438 298.78125 283.699219 L 40.195312 283.699219 C 39.355469 283.6875 38.515625 283.714844 37.675781 283.789062 C 36.835938 283.859375 36 283.972656 35.171875 284.125 C 34.34375 284.28125 33.527344 284.472656 32.71875 284.707031 C 31.90625 284.945312 31.113281 285.21875 30.332031 285.53125 C 29.550781 285.84375 28.785156 286.195312 28.039062 286.585938 C 27.292969 286.976562 26.566406 287.402344 25.863281 287.863281 C 25.15625 288.324219 24.476562 288.816406 23.820312 289.347656 C 23.164062 289.875 22.539062 290.433594 21.9375 291.023438 C 21.339844 291.617188 20.769531 292.234375 20.230469 292.882812 C 19.691406 293.527344 19.1875 294.199219 18.714844 294.898438 C 18.242188 295.59375 17.808594 296.3125 17.40625 297.054688 C 17.007812 297.792969 16.644531 298.550781 16.320312 299.328125 C 15.992188 300.105469 15.707031 300.894531 15.460938 301.699219 C 15.214844 302.503906 15.007812 303.316406 14.84375 304.144531 C 14.675781 304.96875 14.550781 305.796875 14.46875 306.636719 C 14.386719 307.472656 14.34375 308.3125 14.34375 309.152344 C 14.34375 309.996094 14.386719 310.832031 14.46875 311.671875 C 14.550781 312.507812 14.675781 313.339844 14.84375 314.164062 C 15.007812 314.988281 15.214844 315.804688 15.460938 316.609375 C 15.707031 317.414062 15.992188 318.203125 16.320312 318.980469 C 16.644531 319.753906 17.007812 320.511719 17.40625 321.253906 C 17.808594 321.992188 18.242188 322.710938 18.714844 323.410156 C 19.1875 324.105469 19.691406 324.777344 20.230469 325.425781 C 20.769531 326.070312 21.339844 326.691406 21.9375 327.28125 C 22.539062 327.871094 23.164062 328.433594 23.820312 328.960938 C 24.476562 329.488281 25.15625 329.984375 25.863281 330.445312 C 26.566406 330.90625 27.292969 331.332031 28.039062 331.71875 C 28.785156 332.109375 29.550781 332.460938 30.332031 332.773438 C 31.113281 333.089844 31.90625 333.363281 32.71875 333.597656 C 33.527344 333.832031 34.34375 334.027344 35.171875 334.179688 C 36 334.335938 36.835938 334.449219 37.675781 334.519531 C 38.515625 334.589844 39.355469 334.621094 40.195312 334.609375 L 298.78125 334.609375 C 310.25 378.285156 349.894531 410.972656 397.058594 410.972656 C 444.222656 410.972656 483.867188 378.285156 495.332031 334.609375 L 753.917969 334.609375 C 754.761719 334.621094 755.601562 334.589844 756.441406 334.519531 C 757.28125 334.449219 758.113281 334.335938 758.941406 334.179688 C 759.769531 334.027344 760.589844 333.832031 761.398438 333.597656 C 762.207031 333.363281 763.003906 333.089844 763.785156 332.773438 C 764.566406 332.460938 765.328125 332.109375 766.078125 331.71875 C 766.824219 331.332031 767.550781 330.90625 768.253906 330.445312 C 768.957031 329.984375 769.636719 329.488281 770.292969 328.960938 C 770.949219 328.433594 771.578125 327.871094 772.175781 327.28125 C 772.777344 326.691406 773.347656 326.070312 773.882812 325.425781 C 774.421875 324.777344 774.925781 324.105469 775.398438 323.410156 C 775.871094 322.710938 776.308594 321.992188 776.707031 321.253906 C 777.109375 320.511719 777.472656 319.753906 777.796875 318.980469 C 778.121094 318.203125 778.40625 317.414062 778.652344 316.609375 C 778.902344 315.804688 779.105469 314.988281 779.273438 314.164062 C 779.4375 313.339844 779.5625 312.507812 779.644531 311.671875 C 779.730469 310.832031 779.769531 309.996094 779.769531 309.152344 C 779.769531 308.3125 779.730469 307.472656 779.644531 306.636719 C 779.5625 305.796875 779.4375 304.96875 779.273438 304.144531 C 779.105469 303.316406 778.902344 302.503906 778.652344 301.699219 C 778.40625 300.894531 778.121094 300.105469 777.796875 299.328125 C 777.472656 298.550781 777.109375 297.792969 776.707031 297.054688 C 776.308594 296.3125 775.871094 295.59375 775.398438 294.898438 C 774.925781 294.199219 774.421875 293.527344 773.882812 292.882812 C 773.347656 292.234375 772.777344 291.617188 772.175781 291.023438 C 771.578125 290.433594 770.949219 289.875 770.292969 289.347656 C 769.636719 288.816406 768.957031 288.324219 768.253906 287.863281 C 767.550781 287.402344 766.824219 286.976562 766.078125 286.585938 C 765.328125 286.195312 764.566406 285.84375 763.785156 285.53125 C 763.003906 285.21875 762.207031 284.945312 761.398438 284.707031 C 760.589844 284.472656 759.769531 284.28125 758.941406 284.125 C 758.113281 283.972656 757.28125 283.859375 756.441406 283.789062 C 755.601562 283.714844 754.761719 283.6875 753.917969 283.699219 L 495.332031 283.699219 C 483.867188 240.023438 444.222656 207.332031 397.058594 207.332031 Z M 397.058594 258.242188 C 424.726562 258.242188 446.589844 279.566406 447.789062 306.867188 C 447.648438 308.40625 447.648438 309.949219 447.789062 311.488281 C 446.5625 338.765625 424.710938 360.0625 397.058594 360.0625 C 369.386719 360.0625 347.527344 338.742188 346.328125 311.441406 C 346.46875 309.898438 346.46875 308.359375 346.328125 306.816406 C 347.550781 279.539062 369.402344 258.242188 397.058594 258.242188 Z M 397.058594 258.242188"/></g></svg>