
<svg id="svg" xmlns="http://www.w3.org/2000/svg" viewBox="0 0 347.45 408.86"><defs><style>.cls-1{fill:#662d91;fill-rule:evenodd;}</style></defs><title>lego</title><g id="svgg"><path id="path0" class="cls-1" d="M221.54,18.49a45.86,45.86,0,0,0-7.2-.8,44.94,44.94,0,0,0-9.2.62s-15.77-1.67-15.77,6.14c0,.18-.21.33-.46.33-.58,0-2.35,1.91-3.53,3.81-.75,1.23-.95,2.37-1.1,6.56-.27,7.2-.89,7.88-7.14,7.9-4.33,0-10.77,2.05-13.49,4.27C154,55.17,154.1,54.66,154,94.14c-.07,31.43-.08,31.31,2.22,33.78,1.62,1.73,12.93,3.38,23.13,3.38,4.6,0,5.61.44,3.87,1.67s-3.21,1.42-9.94,1.74L167,135l.14,3.1c.18,3.7-.35,4.09-5.14,3.73-9.51-.72-18.13,1.34-19.76,4.73-1.16,2.41-.5,2.28-13.08,2.64-16.76.47-20.88,1.23-23.9,4.45a41.57,41.57,0,0,1-3.48,2.93c-1.44,1.1-3.1,2.48-3.7,3.06s-2.84,2.6-5,4.49-4.34,3.88-4.87,4.43a4.24,4.24,0,0,1-1.21,1,4.17,4.17,0,0,0-1.22,1c-1,1-3.14,3-9,8.16-9.25,8.25-11.27,11-11.36,15.2,0,2.41-3.5,3.34-7.38,2-2.86-1-12.16-.9-15.23.18-5.59,2-10.36,4.73-10.4,6,0,.29-.19.54-.41.54-.54,0-1.92,2.47-2.55,4.56-1.53,5.07-1.83,6.71-2.51,13.71-.82,8.27-.74,17.45.15,18.34a1.92,1.92,0,0,1,.52,1.17c0,2.54,4.43,4.32,6.86,2.77a59.37,59.37,0,0,0,5.31-4c.63-.79,8.44-4.6,11.81-5.77,6-2.09,15.81,1,18.43,5.91,1.6,3-1.29,3.15-5.45.34-6.66-4.48-10.81-4-12.91,1.4-1.67,4.34.88,15,3.59,15a2.05,2.05,0,0,1,.83.58c2.22,2.22,11.29,2.25,13.74,0a2.45,2.45,0,0,1,1.36-.62,1.87,1.87,0,0,0,1.21-.66,1.8,1.8,0,0,1,.9-.65c.6,0,4.11-2.5,5.49-3.91,2-2,2.59-5.19,2-9.93-1.54-11.65-1.55-11.77-1-15.64.29-2.08.72-4.64,1-5.7.4-1.78,0-4.06-.91-4.82s-5.72-9.19-5.55-9.71c.08-.22,1.6,1,3.38,2.81,2.94,2.92,7.7,7.2,10.37,9.33.57.46,1.94,1.67,3,2.68,5.44,5,8.4,4.4,14-2.93a14.05,14.05,0,0,1,1.81-2.11.86.86,0,0,0,.33-.76c0-.33.19-.61.41-.61s.52-.34.65-.76c.23-.71,1.82-2.64,4.37-5.33,1.77-1.86,7.72-4.09,13.83-5.18,2.5-.44,8.07.1,12.35,1.21,4.59,1.2,7.32,1.43,16.77,1.41,15.74,0,23.86-1.82,29-6.46,1.63-1.47,2.13-2.28,4.17-6.85.94-2.1,1.19-15,.33-16.78-.28-.57-1.18-2.51-2-4.31-3-6.5-10.76-13-19.37-16.11-2.32-.85-1.27-1,1.93-.2,11.17,2.63,16.54,5.21,21.5,10.33,6.62,6.84,9.33,20.13,5.61,27.48-1.54,3-7,9.37-8.14,9.37-.3,0-.56.18-.56.38,0,.61-6.09,3.42-8.47,3.91a107.71,107.71,0,0,1-13.27,2.22c-8.17.82-18.28.31-24.15-1.21a35.63,35.63,0,0,0-9.52-1.38h-3.17l-.27,1.63a38.57,38.57,0,0,0-.28,4.67c0,3.39-1,14.12-1.68,18.48-2,12.41-2.09,13.68-2.69,30.87-.22,6.1-.51,12.1-.66,13.34-.42,3.53,4.19,5,17.21,5.54,19,.77,36.12,2,36.06,2.64-.16,1.81-14.78,3.18-26.24,2.47-12.28-.77-19.13-.7-19.88.21-1,1.24-.72,12.45.42,14.94,2.15,4.71,5.44,5.23,9.47,1.5,1.64-1.52,7.4-4.51,10.79-5.6,2.54-.82,11.27-1,13.15-.21,1.49.6,1.59.57-4.86,1.48-5.08.72-8.2,1.47-10.87,2.61L146,301.13c-1,.43-1.85.93-1.85,1.13s-.25.35-.56.35c-.86,0-5.33,4.14-6.71,6.21a25.53,25.53,0,0,0-4.08,13.34c-.07,4.76-.44,5.43-1.64,3-1.73-3.58-3.81-4.83-6.07-3.65-.64.33-1.65.82-2.24,1.08a41.72,41.72,0,0,0-6.19,3.59,33.12,33.12,0,0,1-3.91,2.32c-4.79,2.45-5.4,3.7-3.62,7.41a50.22,50.22,0,0,1,2.85,6.69,39.85,39.85,0,0,0,2,4.59,41.21,41.21,0,0,1,2,4.56,6.3,6.3,0,0,0,.6,1.62c.82,1.7,1.59,3.53,3.73,8.84,1,2.51,2.39,5.74,3.06,7.18a44.06,44.06,0,0,1,1.77,4.35,68.47,68.47,0,0,0,3.24,7.82c1.76,3.72,3.16,6.92,4.12,9.35,1.83,4.63,1.14,4.59,12.57.83,18.7-6.15,22-7.3,22.14-7.82a.74.74,0,0,1,.68-.4c2.71,0,.61-2.53-6.54-7.9a32.78,32.78,0,0,1-7.18-6.81c-1.42-1.76,2-1.63,4.64.17a7.3,7.3,0,0,0,2,1.06.39.39,0,0,1,.42.36,6.44,6.44,0,0,0,1.88,1.71c1,.75,2.45,1.84,3.15,2.43,3.52,3,9.27,7.61,10.62,8.55a36.78,36.78,0,0,1,3.15,2.55c.9.82,3,2.43,4.57,3.58s3.17,2.29,3.46,2.54a1.88,1.88,0,0,0,.76.45,3.07,3.07,0,0,1,1,.68c1,.85,7.49,5.41,7.75,5.41a4,4,0,0,1,1,.76,26.2,26.2,0,0,0,4.38,3.24c1.31.86,2.78,1.87,3.26,2.26a57.1,57.1,0,0,0,5.82,4.16c1.14.6,7.62,5.22,8.85,6.3a2.85,2.85,0,0,0,1.05.67A65.47,65.47,0,0,1,229,421a2.29,2.29,0,0,0,1.17.71.43.43,0,0,1,.46.38c0,.78,6,4.4,7.33,4.4a19.91,19.91,0,0,0,3.8-1.11c1.65-.61,4.08-1.49,5.39-1.94,4.62-1.59,5.69-2,6.19-2.53a1.81,1.81,0,0,1,1.06-.51,9.23,9.23,0,0,0,2.2-.71l2.95-1.29a48.16,48.16,0,0,1,7.83-2.78c1.59,0,5.58-2.87,6.34-4.56a15.08,15.08,0,0,1,1.69-2.83,15.05,15.05,0,0,0,1.06-1.74c.46-.84,1.82-3.09,3-5,3.24-5.11,3.26-5.14,3.69-6.09a21.36,21.36,0,0,1,1.43-2.39,21.11,21.11,0,0,0,1.35-2.17c.17-.36.7-1.24,1.17-2a18.76,18.76,0,0,0,1.25-2.17,33.66,33.66,0,0,1,2-3.2A19,19,0,0,0,292,381a2.56,2.56,0,0,1,.61-.94,21.74,21.74,0,0,0,1.87-3.07c.68-1.32,1.78-3.22,2.43-4.23a9.88,9.88,0,0,0,1.17-2.25.64.64,0,0,1,.34-.55,31.13,31.13,0,0,0,3.58-5.34,12.73,12.73,0,0,1,1.15-2.09c5.2-8.23,4.82-13.29-.78-10.3a12.93,12.93,0,0,1-2.9.85c-1.12.2-3.41.75-5.08,1.22-2.78.78-8.7,1.68-7.18,1.09l3.48-1.3c1.56-.58,3.42-1.32,4.13-1.63s2.19-.92,3.26-1.34,2.42-1,3-1.24l1-.47-1-.8c-.56-.44-1.58-1.28-2.26-1.87a5.35,5.35,0,0,0-1.59-1.06.6.6,0,0,1-.5-.4c-.23-.61-5.68-4.86-6.78-5.29a11.3,11.3,0,0,0-4.35.24c-1.85.34-5.52.83-8.15,1.09s-6.44.76-8.48,1.11a139.79,139.79,0,0,1-14.23,2c-4.16,0-5.55,1.47-9.26,9.78-3.89,8.73-4.09,8.85-8.9,5.41-3.15-2.24-5-3.46-11.95-8-2.28-1.47-5.88-3.84-8-5.25s-4.18-2.77-4.56-3a4.87,4.87,0,0,1-.91-.71,10.9,10.9,0,0,0-1.74-1.11c-3.15-1.75-4.34-2.54-4.35-2.85s-.2-.33-.45-.33a9.8,9.8,0,0,1-3.39-2.28.71.71,0,0,0-.61-.33,11.87,11.87,0,0,1-2.79-1.75l-2.33-1.75v-3.37a29.65,29.65,0,0,0-2.64-11.11c-.64-1.11-.28-1.29.72-.37.46.43,1.93,1.6,3.27,2.61,2.41,1.81,3.44,3.63,3.44,6.07,0,1.28,1,1.48,4,.8,1.48-.34,4.55-.93,6.82-1.32,9.24-1.59,15.54-3,16.95-3.71,1.07-.55.59-3-1.59-8.12-1-2.32-.39-4.93,1.12-4.93a12.88,12.88,0,0,1,3.08,3.25,11.36,11.36,0,0,0,1.1,2,19,19,0,0,1,2.94,9.49c.11,3.68-.05,3.88-3.63,4.43-1.54.23-4.46.71-6.49,1.05l-8.05,1.34c-8.4,1.41-11.31,2-11.74,2.44s2.17,2.95,3.15,3c.3,0,.55.18.55.39s.59.63,1.3.93,1.31.71,1.31.92a.44.44,0,0,0,.48.38,8.42,8.42,0,0,1,2.28,1.2,35.48,35.48,0,0,0,3.11,1.83,21.43,21.43,0,0,1,2.82,1.78A18,18,0,0,0,222,344.5c.36.16,1.63.88,2.82,1.59s3.15,1.8,4.35,2.41l5,2.6c3.48,1.82,6.52,1.81,6.52,0a6.57,6.57,0,0,1,1.09-1.77,7.91,7.91,0,0,0,1.12-1.78,20.16,20.16,0,0,1,1.85-3c2-2.82,3.15-3.38,12-5.66,5.53-1.42,7-2.88,8.67-8.62.49-1.72,1.19-4.11,1.55-5.33,1.41-4.81.5-10.5-2.88-17.84-1.9-4.12-3.24-4.5-15.87-4.51-7.67,0-11.26-.79-6.58-1.45,1-.14,2.73-.46,3.8-.69a25.84,25.84,0,0,1,4.45-.45c12.31-.1,19.9-5,19.9-12.85,0-3.26.24-3.21-17.87-3.73-15.1-.44-19.65-.84-16-1.4s14.74-1.22,23.7-1.43c10.55-.26,13.37-.66,14.35-2.06.8-1.14.83-4.89.16-19.5-.7-15.23-2-14.2,14-11.15,1.32.25,3.37.6,4.57.76a27.33,27.33,0,0,1,3.69.79c6.3,2,9,2,9.12,0a8.8,8.8,0,0,1,1.43-1.84c2.47-2.69,6-1.56,6,1.94,0,1.18,4.72,10,5.35,10a5.76,5.76,0,0,1,1.44,1.09,24.85,24.85,0,0,0,8.57,4.57c6,1.84,20.29.86,20.29-1.4a.36.36,0,0,1,.36-.35c1.77,0,10.47-10.26,12.41-14.63,3.1-7-5.37-18.93-15.07-21.2-5.32-1.24-7.7-3.26-7.7-6.51,0-2,1.63-2.18,4.17-.38,3,2.15,9.81,4.46,13.05,4.45a22.59,22.59,0,0,1,7,2.1c1.65.8,3.54,3.6,3.86,5.7.12.86.52,2.92.88,4.6s.64,3.3.64,3.63c0,1.22,1.78,3.18,2.42,2.64,2.75-2.28,4.43-16.7,2.57-22-1.22-3.49-7.09-8.1-12.59-9.88-11.08-3.59-26.71-2.92-30.69,1.31-2.6,2.77-5.28,3.91-11.93,5.07-3.3.58-5.07,1.35-7,3.07-1.75,1.53-6.68,7.85-6.68,8.55a.42.42,0,0,1-.37.46c-.2,0-.59.45-.87,1-.43.83-.47.63-.25-1.19a12.12,12.12,0,0,1,1.53-4.25,17.71,17.71,0,0,0,1.26-2.29,26,26,0,0,1,3.48-4,49.06,49.06,0,0,1,4.57-3.4c6-4.06,6.05-4.18,2.18-4.78a33.21,33.21,0,0,1-3.92-.91l-4.57-1.33c-1.31-.38-3.76-1.17-5.43-1.75s-4-1.34-5.22-1.7c-2.69-.81-6.43-2.64-7.58-3.71a3.2,3.2,0,0,0-1.2-.81,57.63,57.63,0,0,1-5.27-5c-5.18-5.25-5.76-5.6-6.77-4-.79,1.25-2,8.37-2,11.82a18.71,18.71,0,0,1-.52,4.38l-.52,1.74-.32-2.83c-1-8.79-1.24-13.87-1.24-27.82,0-16.71,0-16.86-2.54-20.95-1-1.67-5.27-5.14-6.27-5.14a3.15,3.15,0,0,1-1.44-.64,4.13,4.13,0,0,0-2.08-.65c-.56,0-2-.48-3.7-.64-4.71-.43-6.61,1-8.29-.11-.85-.56-1.79-1.87-1.71-5.35l-.06-2.94c-.14-6.28-.09-6.63.94-6.63,2.09,0,10.61-3.16,11.67-4.33.12-.13,1-.78,2-1.44,6-4,6.27-6.29,6.4-47.16.09-29.17.51-26.56-5.22-32.85-1.24-1.37-6.4-4.23-9.18-5.09-.64-.2-2.25-.79-3.57-1.31a34,34,0,0,0-3.91-1.3c-3.18-.75-5-2.07-6.73-2.85-6.77-3.1-12.91-3.38-12.83-3.89,0-.32,2.49-.6,8.41-.63a10.12,10.12,0,0,0,3.58-.72c2.71-1.28,1.07-8.42-2.73-11.46l-.28-.21C232.76,22.68,229,20,221.54,18.49Zm-8.61,49.32c2.54-1.84,4.58-1.57,7.48,1,2.51,2.23.68,8-2.87,9.1-5.9,1.77-9.65-6.43-4.61-10.09m39.18,1.88c4-2.22,6.46,6.83,2.9,10.66-2.81,3-6.16-3.59-4.31-8.47a9.45,9.45,0,0,0,.47-1.45c0-.11.42-.45.94-.74m-36.24,33.63c.6-2.62,1-2.58,3.06.3,2.37,3.27,5.61,6.81,6.22,6.81a2.4,2.4,0,0,1,1.14.58c2.66,2.23,13.58,3.84,17.47,2.59,2.3-.74,9-6.71,9.12-8.08s.78,1.53.81,3.45c.07,5.33-5.6,9.62-6.32,10.16a18.17,18.17,0,0,1-11.05,3.45c-8.49-.26-16.73-8-20.45-19.26" transform="translate(-26.39 -17.66)"/></g><path class="cls-1" d="M230.08,171.75" transform="translate(-26.39 -17.66)"/><path class="cls-1" d="M238.83,156.08" transform="translate(-26.39 -17.66)"/><path class="cls-1" d="M242.45,155.64" transform="translate(-26.39 -17.66)"/><path class="cls-1" d="M232.22,150.61" transform="translate(-26.39 -17.66)"/></svg>